<svg width="587" height="79" viewBox="0 0 587 79" fill="none" xmlns="http://www.w3.org/2000/svg">
<mask id="mask0_7399_6946" style="mask-type:luminance" maskUnits="userSpaceOnUse" x="492" y="13" width="95" height="53">
<path d="M586.748 13H492V65.2748H586.748V13Z" fill="white"/>
</mask>
<g mask="url(#mask0_7399_6946)">
<path d="M524.759 65.0951C524.757 65.0328 524.752 64.9705 524.752 64.9081C524.752 61.7918 524.754 58.6755 524.748 55.5592C524.748 55.3687 524.793 55.3172 524.981 55.3226C525.513 55.3361 526.044 55.3334 526.575 55.3235C526.719 55.3208 526.791 55.3669 526.855 55.5005C527.834 57.5503 528.818 59.5966 529.802 61.6437C529.829 61.6997 529.857 61.7539 529.885 61.809C529.947 61.7909 529.953 61.734 529.972 61.6925C530.965 59.6291 531.957 57.5648 532.944 55.4987C533.008 55.365 533.081 55.3217 533.224 55.3244C533.73 55.3334 534.237 55.3352 534.743 55.3244C534.914 55.3208 534.958 55.3696 534.958 55.5411C534.952 58.5825 534.954 61.6239 534.953 64.6661C534.953 64.8097 534.95 64.9533 534.948 65.0969H533.503C533.427 65.0057 533.45 64.8946 533.45 64.7908C533.449 62.6244 533.449 60.459 533.449 58.2926C533.449 58.2303 533.45 58.168 533.448 58.0669C533.399 58.1509 533.374 58.2096 533.346 58.2655C532.634 59.6851 531.958 61.1227 531.253 62.5458C531.029 62.9974 530.81 63.4525 530.596 63.9094C530.516 64.0801 530.403 64.1514 530.219 64.1415C530.009 64.1306 529.798 64.1306 529.589 64.1415C529.397 64.1514 529.284 64.0701 529.198 63.8977C528.707 62.9179 528.252 61.9201 527.758 60.9412C527.281 59.9966 526.85 59.0286 526.364 58.0922C526.369 58.15 526.369 58.2123 526.369 58.2737C526.369 60.4526 526.369 62.6307 526.369 64.8097C526.369 64.9081 526.388 65.0111 526.316 65.0969H524.759V65.0951Z" fill="#009F4E"/>
<path d="M550.324 65.0949C550.324 63.6717 550.306 62.2476 550.332 60.8245C550.347 60.0244 549.825 59.2532 548.853 59.144C547.902 59.0365 546.952 59.6099 546.593 60.4994C546.498 60.7333 546.461 60.9771 546.462 61.2299C546.464 62.4165 546.459 63.6022 546.467 64.7887C546.468 64.973 546.413 65.0199 546.238 65.0136C545.849 65.001 545.46 65.0055 545.071 65.0118C544.941 65.0145 544.886 64.9865 544.886 64.8375C544.89 61.5036 544.89 58.1696 544.886 54.8357C544.886 54.6957 544.938 54.6731 545.059 54.6749C545.466 54.6813 545.873 54.684 546.28 54.674C546.428 54.6704 546.466 54.7138 546.465 54.861C546.46 56.1595 546.462 57.458 546.462 58.7566V58.9616C546.538 58.9616 546.542 58.9002 546.567 58.8631C547.148 57.9899 547.947 57.5538 548.999 57.552C549.696 57.5511 550.337 57.682 550.886 58.1308C551.524 58.6527 551.886 59.3183 551.883 60.1671C551.879 61.8088 551.881 63.4514 551.88 65.0931H550.323L550.324 65.0949Z" fill="#009F4E"/>
<path d="M568.146 65.0953C567.66 65.0212 567.205 64.8027 566.783 64.5372C566.632 64.4424 566.486 64.3358 566.334 64.241C566.252 64.1895 566.25 64.139 566.292 64.0568C566.442 63.7633 566.591 63.4689 566.73 63.17C566.783 63.0544 566.823 63.0815 566.902 63.1429C567.682 63.7452 568.561 64.0324 569.546 63.971C569.712 63.9602 569.876 63.924 570.03 63.8581C570.547 63.6387 570.63 63.0219 570.19 62.6652C569.989 62.5027 569.755 62.4052 569.514 62.3257C569.087 62.1839 568.656 62.0539 568.231 61.9058C567.784 61.7496 567.368 61.5365 567.045 61.1725C566.35 60.3878 566.357 58.6179 567.88 58.0129C568.786 57.6526 569.701 57.686 570.618 57.956C571.004 58.0698 571.368 58.2377 571.725 58.4247C571.829 58.4788 571.841 58.5204 571.776 58.6188C571.607 58.8726 571.444 59.1299 571.289 59.3927C571.226 59.5002 571.176 59.4993 571.077 59.4388C570.434 59.0459 569.743 58.8319 568.984 58.8735C568.798 58.8834 568.616 58.9159 568.448 58.999C568.042 59.1995 567.949 59.7214 568.259 60.0555C568.429 60.2379 568.648 60.3418 568.875 60.4212C569.376 60.5964 569.882 60.7545 570.381 60.936C570.808 61.0913 571.196 61.317 571.505 61.6665C572.181 62.4286 572.205 64.194 570.71 64.8713C570.526 64.9544 570.335 65.0212 570.148 65.0953C569.481 65.0953 568.807 65.1955 568.147 65.0953H568.146Z" fill="#009F4E"/>
<path d="M582.337 65.0959C581.391 62.6279 580.445 60.1591 579.49 57.6658C580.034 57.6658 580.552 57.6658 581.069 57.6658C581.174 57.6658 581.173 57.757 581.195 57.823C581.538 58.8109 581.88 59.7988 582.221 60.7876C582.508 61.6174 582.793 62.4473 583.08 63.2763C583.102 63.3404 583.129 63.4027 583.167 63.5029C583.267 63.2203 583.356 62.9738 583.441 62.7255C584.002 61.1018 584.563 59.4782 585.118 57.8528C585.166 57.7155 585.223 57.6559 585.378 57.6604C585.826 57.6731 586.275 57.6649 586.748 57.6649C586.562 58.1688 586.387 58.6474 586.209 59.1242C585.488 61.0666 584.766 63.0099 584.045 64.9523C584.028 64.9983 584.017 65.0471 584.003 65.095H582.336L582.337 65.0959Z" fill="#009F4E"/>
<path d="M563.626 65.0956C563.256 64.9854 562.911 64.8355 562.641 64.542C562.295 64.1646 562.103 63.7257 562.103 63.2074C562.103 61.9142 562.101 60.622 562.106 59.3298C562.106 59.1889 562.079 59.1284 561.925 59.1384C561.691 59.1519 561.455 59.1384 561.221 59.1438C561.121 59.1465 561.078 59.1176 561.08 59.0074C561.087 58.695 561.087 58.3825 561.08 58.071C561.078 57.9581 561.125 57.9355 561.223 57.9373C561.439 57.9428 561.656 57.9274 561.871 57.9428C562.051 57.9554 562.115 57.913 562.109 57.7134C562.093 57.1644 562.108 56.6144 562.101 56.0654C562.1 55.9299 562.129 55.8803 562.274 55.883C562.706 55.8929 563.138 55.8929 563.57 55.883C563.724 55.8794 563.754 55.9354 563.752 56.0762C563.745 56.6316 563.755 57.1878 563.746 57.7432C563.744 57.8958 563.781 57.9455 563.938 57.9428C564.524 57.9337 565.112 57.9446 565.698 57.9355C565.851 57.9328 565.885 57.9834 565.88 58.1261C565.87 58.4132 565.872 58.7004 565.88 58.9876C565.884 59.1131 565.84 59.1456 565.72 59.1438C565.128 59.1384 564.535 59.1465 563.943 59.1375C563.785 59.1347 563.747 59.1871 563.748 59.3388C563.753 60.4315 563.75 61.5241 563.752 62.6177C563.752 62.8109 563.764 63.0042 563.817 63.192C563.91 63.5261 564.135 63.7022 564.481 63.7049C564.835 63.7085 565.165 63.62 565.462 63.4214C565.559 63.3555 565.606 63.3338 565.645 63.4801C565.728 63.7925 565.827 64.1013 565.928 64.4084C565.961 64.5104 565.942 64.5592 565.848 64.6152C565.454 64.849 565.037 65.0044 564.583 65.0631C564.549 65.0676 564.515 65.0838 564.481 65.0956H563.628H563.626Z" fill="#009F4E"/>
<path d="M518.757 22.2016C518.884 22.1086 519.019 22.04 519.168 21.9975C520.988 21.4828 522.836 21.1108 524.712 20.8886C526.523 20.6737 528.341 20.5961 530.164 20.6782C530.8 20.7071 531.44 20.7116 532.064 20.82C532.716 20.9329 533.37 21.0846 533.939 21.4684C534.513 21.8549 534.647 22.4102 534.559 23.0559C534.507 23.4324 534.419 23.8045 534.428 24.1883C534.432 24.3454 534.452 24.4989 534.494 24.6497C534.618 25.0904 534.922 25.3396 535.373 25.3775C535.741 25.4082 536.1 25.3532 536.453 25.2574C538.106 24.8095 539.649 24.1097 541.156 23.2907C543.464 22.0355 545.861 20.9907 548.457 20.4913C550.114 20.1725 551.773 20.1256 553.446 20.3703C555.624 20.6873 557.741 21.2417 559.851 21.8621C562.403 22.6125 564.939 22.4527 567.406 21.4277C567.722 21.2968 568.022 21.183 568.368 21.2516C568.492 21.276 568.543 21.3004 568.479 21.4395C568.182 22.086 567.753 22.5962 567.122 22.9457C566.664 23.1995 566.24 23.5164 565.768 23.7503C564.671 24.293 563.508 24.6055 562.305 24.7752C560.286 25.0606 558.256 25.0452 556.224 25.0136C555.082 24.9956 553.94 24.9874 552.798 25.0118C551.36 25.0425 549.926 25.1346 548.518 25.4651C546.733 25.8841 545.09 26.6264 543.558 27.6414C541.77 28.8253 539.88 29.8285 537.95 30.7496C537.374 31.0241 536.768 31.2155 536.137 31.323C535.174 31.4883 534.625 31.0223 534.585 30.0019C534.559 29.3526 534.636 28.7196 534.886 28.1146C534.962 27.9304 535.015 27.7389 535.033 27.5376C535.073 27.0824 534.9 26.7564 534.496 26.5397C534.213 26.388 533.904 26.3311 533.594 26.2796C532.196 26.0503 530.788 25.9401 529.373 25.9482C528.206 25.9546 527.042 26.0268 525.886 26.1948C525.736 26.2164 525.65 26.1893 525.571 26.0367C524.54 24.0573 522.892 22.9087 520.764 22.4183C520.106 22.2666 519.438 22.2007 518.758 22.2034L518.757 22.2016Z" fill="#F5911E"/>
<path d="M522.849 36.8847C523.164 36.6391 523.483 36.4178 523.778 36.1623C525.322 34.8231 526.225 33.1245 526.541 31.1C526.591 30.7776 526.585 30.7695 526.906 30.7442C527.996 30.6593 529.089 30.653 530.181 30.7198C530.742 30.7541 531.306 30.7704 531.86 30.8534C532.535 30.9546 533.204 31.1054 533.798 31.4801C534.318 31.8079 534.529 32.2838 534.489 32.8906C534.465 33.2582 534.358 33.6149 534.348 33.9842C534.342 34.2027 534.336 34.4204 534.387 34.6362C534.5 35.1094 534.804 35.3757 535.279 35.4209C535.763 35.467 536.221 35.3441 536.679 35.2123C538.197 34.7752 539.619 34.1196 541.009 33.3638C543.372 32.0797 545.829 31.0259 548.486 30.5229C549.969 30.2421 551.46 30.1924 552.965 30.336C555.296 30.5581 557.549 31.1225 559.789 31.7944C562.376 32.5701 564.946 32.4066 567.449 31.3645C567.676 31.2697 567.883 31.1325 568.144 31.1406C568.524 31.1532 568.567 31.2128 568.416 31.5533C568.116 32.2251 567.646 32.72 566.953 32.9809C566.901 32.9999 566.851 33.027 566.806 33.0577C565.475 33.9553 563.999 34.4646 562.434 34.7436C560.503 35.0877 558.552 35.0913 556.601 35.0669C555.02 35.048 553.44 35.001 551.86 35.0832C550.376 35.1599 548.893 35.2575 547.458 35.7099C546.16 36.1189 544.95 36.7131 543.815 37.4626C541.914 38.7196 539.921 39.8114 537.866 40.7875C537.235 41.0873 536.574 41.3167 535.871 41.3808C535.042 41.4567 534.568 41.0494 534.508 40.2069C534.458 39.5161 534.512 38.8361 534.784 38.1868C534.847 38.0378 534.892 37.8825 534.922 37.7227C535.025 37.1664 534.824 36.7718 534.316 36.5406C533.95 36.3736 533.556 36.3338 533.165 36.2842C531.681 36.0964 530.192 36.0115 528.695 36.0449C526.918 36.0846 525.168 36.3221 523.441 36.7438C523.245 36.7917 523.047 36.8359 522.849 36.882V36.8847Z" fill="#009F4E"/>
<path d="M502.018 55.9891C502.51 55.1502 503.232 54.8396 504.17 54.854C505.147 54.8685 505.758 55.3543 506.165 56.2239C506.203 56.1562 506.234 56.1002 506.264 56.0442C506.685 55.2622 507.325 54.8531 508.215 54.8613C508.572 54.8649 508.927 54.8613 509.269 55.0021C510.001 55.3037 510.485 55.9891 510.489 56.7856C510.495 58.1654 510.489 59.5461 510.494 60.9259C510.494 61.0569 510.457 61.0975 510.328 61.0948C510.007 61.0867 509.685 61.0867 509.365 61.0948C509.238 61.0984 509.196 61.0632 509.197 60.9295C509.203 59.8306 509.199 58.7316 509.206 57.6326C509.21 56.9653 508.795 56.3901 508.156 56.2817C507.011 56.0858 506.209 57.0195 506.247 57.9776C506.281 58.8318 506.259 59.6879 506.262 60.5431C506.262 60.6613 506.259 60.7805 506.262 60.8988C506.264 60.9792 506.232 61.009 506.153 61.0081C505.795 61.0054 505.436 61.0036 505.078 61.0081C504.961 61.0099 504.971 60.9359 504.972 60.86C504.972 60.4356 504.972 60.0112 504.972 59.5859C504.972 58.9303 504.963 58.2747 504.977 57.6191C504.989 57.033 504.769 56.5779 504.257 56.3061C503.755 56.0388 503.257 56.1426 502.805 56.4497C502.274 56.81 502.026 57.34 502.021 57.9794C502.013 58.8914 502.014 59.8026 502.022 60.7146C502.023 60.8745 501.974 60.9151 501.824 60.9097C501.528 60.8988 501.232 60.8979 500.935 60.9097C500.781 60.916 500.738 60.8681 500.739 60.7119C500.745 59.6066 500.743 58.5013 500.743 57.396C500.743 56.6529 500.748 55.9097 500.738 55.1665C500.736 54.9958 500.788 54.9552 500.947 54.9615C501.255 54.9732 501.565 54.9696 501.873 54.9633C501.987 54.9606 502.023 54.9994 502.022 55.1132C502.015 55.4049 502.02 55.6966 502.02 55.9882L502.018 55.9891Z" fill="#231F20"/>
<path d="M508.595 48.6385C509.954 48.6385 511.3 48.643 512.646 48.634C512.834 48.6331 512.889 48.68 512.879 48.8697C512.862 49.1559 512.866 49.444 512.878 49.7311C512.884 49.8837 512.844 49.9343 512.685 49.9325C511.925 49.9244 511.166 49.9289 510.406 49.9289C509.215 49.9289 508.024 49.9253 506.832 49.9325C506.667 49.9334 506.613 49.8883 506.628 49.723C506.641 49.574 506.646 49.4214 506.628 49.2742C506.584 48.9374 506.718 48.6927 506.93 48.4389C508.198 46.9237 509.449 45.3939 510.705 43.8696C510.713 43.8606 510.718 43.8489 510.73 43.8272C510.671 43.783 510.602 43.8028 510.54 43.8028C509.33 43.801 508.12 43.7992 506.91 43.8055C506.759 43.8055 506.707 43.7712 506.713 43.6114C506.726 43.2872 506.72 42.9621 506.715 42.637C506.713 42.535 506.738 42.4944 506.848 42.4962C508.15 42.5196 509.452 42.5395 510.754 42.5585C511.372 42.5675 511.989 42.5774 512.606 42.5765C512.749 42.5765 512.816 42.6126 512.791 42.7644C512.786 42.7951 512.791 42.8267 512.791 42.8583C512.781 43.1445 512.869 43.457 512.759 43.7098C512.653 43.9554 512.414 44.1433 512.232 44.3546C511.05 45.7299 509.867 47.1052 508.686 48.4823C508.651 48.5229 508.604 48.5581 508.596 48.6385H508.595Z" fill="#F5911E"/>
<path d="M543.388 53.2896C542.969 53.2896 542.558 53.2725 542.148 53.2959C541.874 53.3113 541.707 53.2264 541.544 52.9925C540.843 51.9884 540.115 51.0032 539.403 50.0062C539.309 49.8753 539.261 49.8591 539.152 49.99C538.798 50.4144 538.433 50.8298 538.067 51.2443C538.003 51.3174 537.988 51.3915 537.988 51.4818C537.99 52.0308 537.987 52.5808 537.992 53.1298C537.993 53.2472 537.967 53.295 537.839 53.2914C537.513 53.2833 537.185 53.2815 536.858 53.2914C536.718 53.2959 536.696 53.24 536.698 53.1171C536.703 52.5862 536.701 52.0561 536.701 51.5251C536.701 49.5827 536.703 47.6412 536.696 45.6989C536.696 45.5056 536.747 45.4514 536.934 45.4623C537.21 45.4785 537.49 45.4776 537.766 45.4623C537.941 45.4523 537.996 45.4984 537.994 45.6844C537.985 46.871 537.989 48.0575 537.989 49.2432V49.4699C538.201 49.2432 538.386 49.0472 538.568 48.8495C539.577 47.7532 540.586 46.6551 541.594 45.558C541.636 45.5119 541.672 45.465 541.745 45.465C542.225 45.4668 542.704 45.4659 543.232 45.4659C543.064 45.6555 542.925 45.8162 542.782 45.9734C541.956 46.8845 541.132 47.7966 540.302 48.7032C540.215 48.798 540.22 48.8504 540.291 48.9488C541.283 50.3178 542.271 51.6895 543.259 53.0621C543.305 53.1253 543.367 53.1804 543.386 53.286L543.388 53.2896Z" fill="#231F20"/>
<path d="M518.947 58.0781C518.947 57.5598 518.943 57.0414 518.95 56.5231C518.952 56.3922 518.915 56.347 518.784 56.3552C518.612 56.366 518.439 56.3533 518.266 56.3597C518.167 56.3633 518.12 56.338 518.123 56.226C518.13 56.0012 518.129 55.7763 518.123 55.5515C518.12 55.4503 518.158 55.4223 518.252 55.4259C518.424 55.4323 518.598 55.416 518.771 55.4314C518.927 55.4449 518.952 55.3772 518.95 55.2399C518.943 54.8029 518.952 54.3658 518.945 53.9287C518.943 53.7969 518.966 53.7391 519.115 53.7445C519.442 53.7563 519.769 53.7527 520.097 53.7454C520.213 53.7427 520.243 53.7834 520.242 53.8953C520.236 54.3514 520.244 54.8074 520.236 55.2625C520.234 55.3925 520.268 55.4332 520.399 55.4305C520.869 55.4223 521.338 55.4323 521.807 55.4241C521.939 55.4223 521.996 55.4476 521.986 55.5957C521.973 55.8007 521.977 56.0075 521.985 56.2134C521.99 56.3317 521.946 56.3606 521.835 56.3597C521.36 56.3543 520.885 56.3633 520.409 56.3542C520.268 56.3515 520.234 56.394 520.235 56.5321C520.242 57.4189 520.239 58.3057 520.239 59.1924C520.239 59.2547 520.239 59.318 520.244 59.3794C520.286 59.8273 520.499 60.0106 520.943 59.9835C521.198 59.9681 521.447 59.9212 521.667 59.7821C521.785 59.7072 521.819 59.7424 521.847 59.8661C521.903 60.1081 521.977 60.3465 522.042 60.5867C522.061 60.6607 522.078 60.7285 521.99 60.779C521.433 61.0996 520.841 61.2784 520.2 61.1664C519.486 61.0418 518.955 60.3673 518.948 59.6132C518.944 59.1012 518.947 58.5901 518.947 58.0781Z" fill="#231F20"/>
<path d="M530.725 46.3026C530.725 45.1286 530.728 43.9547 530.722 42.7808C530.722 42.63 530.754 42.5758 530.913 42.5803C531.314 42.5921 531.715 42.5884 532.117 42.5821C532.241 42.5803 532.288 42.6092 532.288 42.7465C532.285 45.1196 532.285 47.4927 532.288 49.8659C532.288 49.995 532.255 50.0374 532.124 50.0347C531.711 50.0266 531.297 50.0257 530.883 50.0347C530.748 50.0374 530.723 49.9887 530.723 49.8632C530.727 48.6766 530.725 47.4891 530.725 46.3026Z" fill="#F5911E"/>
<path d="M513.158 56.1851C513.539 55.6839 513.995 55.3326 514.593 55.1863C515.155 55.0491 515.172 55.0644 515.172 55.6288C515.172 55.8103 515.163 55.9918 515.175 56.1715C515.185 56.3214 515.134 56.3576 514.988 56.3576C514.192 56.3576 513.548 56.7874 513.257 57.5008C513.191 57.6633 513.155 57.8304 513.156 58.0092C513.161 58.9393 513.154 59.8703 513.162 60.8004C513.162 60.9575 513.136 61.0207 512.962 61.0117C512.648 60.9955 512.332 61.0045 512.018 61.009C511.916 61.0108 511.864 60.9964 511.864 60.8699C511.867 58.9781 511.867 57.0854 511.864 55.1936C511.864 55.0717 511.906 55.0491 512.014 55.0509C512.347 55.0563 512.68 55.0572 513.014 55.0509C513.128 55.0482 513.163 55.0834 513.161 55.199C513.153 55.5277 513.158 55.8564 513.158 56.1851Z" fill="#231F20"/>
<path d="M515.911 58.1098C515.911 57.186 515.915 56.2613 515.908 55.3375C515.907 55.1822 515.949 55.1317 516.104 55.1371C516.418 55.1479 516.734 55.1434 517.048 55.1389C517.15 55.1371 517.204 55.1524 517.204 55.2789C517.2 57.1707 517.2 59.0634 517.204 60.9552C517.204 61.0798 517.153 61.097 517.049 61.0952C516.734 61.0907 516.419 61.0853 516.105 61.097C515.953 61.1024 515.906 61.0609 515.907 60.9019C515.915 59.9718 515.91 59.0408 515.91 58.1107L515.911 58.1098Z" fill="#231F20"/>
<path d="M532.469 40.453C532.469 41.0138 532.108 41.375 531.551 41.375C530.996 41.375 530.642 41.0111 530.642 40.4449C530.643 39.8769 530.995 39.5256 531.559 39.5274C532.12 39.5292 532.469 39.885 532.468 40.4539L532.469 40.453Z" fill="#F5911E"/>
<path d="M517.287 53.4681C517.284 53.842 516.93 54.2113 516.571 54.2167C516.194 54.2221 515.823 53.8402 515.829 53.4537C515.835 53.0843 516.196 52.7294 516.567 52.7285C516.978 52.7285 517.291 53.05 517.287 53.4681Z" fill="#231F20"/>
<path d="M579.111 60.0308C579.106 58.8966 578.435 58.0225 577.357 57.7191C576.629 57.515 575.893 57.5268 575.156 57.6478C574.449 57.7634 573.787 58.009 573.181 58.4009C573.076 58.4686 573.055 58.5237 573.124 58.6357C573.298 58.9156 573.46 59.2028 573.62 59.4917C573.673 59.5884 573.71 59.592 573.798 59.5279C574.481 59.033 575.247 58.8289 576.083 58.8759C577.021 58.9292 577.56 59.4773 577.56 60.3731C577.56 60.5076 577.517 60.5401 577.391 60.5383C576.768 60.5329 576.145 60.5302 575.522 60.5383C575.097 60.5438 574.671 60.56 574.256 60.6738C573.545 60.8688 572.968 61.2436 572.722 61.9759C572.423 62.8672 572.587 63.6844 573.212 64.3951C573.534 64.7617 573.949 64.9676 574.409 65.0959C574.824 65.1681 575.205 65.2286 575.934 65.0652C576.483 64.964 576.954 64.7067 577.372 64.3391C577.424 64.2931 577.48 64.2497 577.557 64.1856C577.557 64.4349 577.564 64.6462 577.555 64.8566C577.548 64.9848 577.596 65.0146 577.714 65.0128C578.127 65.0074 578.541 65.0056 578.954 65.0128C579.086 65.0155 579.119 64.9712 579.118 64.843C579.114 63.2393 579.118 61.6346 579.111 60.0308ZM576.477 63.6565C576.195 63.7702 575.901 63.8307 575.6 63.8723C575.305 63.9138 575.02 63.8759 574.746 63.7766C574.147 63.5589 573.876 62.8636 574.154 62.283C574.252 62.0807 574.418 61.9561 574.62 61.8793C574.817 61.8053 575.024 61.7637 575.234 61.761C575.586 61.7565 575.937 61.7601 576.289 61.7601V61.7547C576.666 61.7547 577.041 61.7556 577.418 61.7547C577.499 61.7547 577.551 61.7574 577.559 61.8685C577.623 62.7652 577.288 63.3278 576.477 63.6565Z" fill="#009F4E"/>
<path d="M543.058 64.8707C543.058 63.323 543.063 61.7743 543.055 60.2265C543.049 58.9289 542.351 58.0511 541.105 57.764C540.49 57.6222 539.866 57.6348 539.246 57.7188C538.479 57.8227 537.762 58.0746 537.108 58.5017C537.014 58.564 536.989 58.611 537.054 58.7176C537.23 59.0038 537.396 59.2955 537.557 59.5899C537.611 59.6883 537.648 59.6847 537.733 59.6242C538.445 59.1158 539.234 58.8982 540.107 58.983C540.998 59.0697 541.465 59.5628 541.499 60.4649C541.504 60.6085 541.46 60.6428 541.323 60.641C540.631 60.6338 539.94 60.6383 539.249 60.6383C538.864 60.6383 538.486 60.6834 538.116 60.7909C537.565 60.9516 537.099 61.237 536.801 61.7526C536.248 62.7107 536.542 63.9822 537.459 64.6477C537.787 64.8852 538.157 65.0053 538.542 65.0974H539.801C540.438 65.0558 540.945 64.7299 541.433 64.3054C541.469 64.4942 541.448 64.6549 541.454 64.8138C541.463 65.0342 541.485 65.0549 541.702 65.0604C542.032 65.0676 542.362 65.0676 542.692 65.0974H543.062C543.06 65.0224 543.058 64.9475 543.058 64.8725V64.8707ZM541.497 61.9838C541.489 62.0262 541.496 62.0714 541.496 62.1292C541.532 62.7784 541.218 63.2408 540.659 63.5343C540.082 63.8359 539.471 63.9867 538.82 63.8196C538.171 63.6535 537.849 63.0719 538.039 62.4208C538.135 62.0939 538.374 61.9242 538.682 61.8375C538.903 61.7752 539.129 61.7553 539.358 61.7562C539.994 61.758 540.629 61.7634 541.265 61.7508C541.448 61.7472 541.532 61.7878 541.497 61.9838Z" fill="#009F4E"/>
<path d="M528.697 46.3971C528.697 44.2118 528.694 42.0265 528.702 39.8412C528.702 39.6443 528.646 39.6037 528.466 39.61C528.084 39.6244 527.7 39.6208 527.318 39.61C527.172 39.6064 527.132 39.6479 527.133 39.7969C527.139 41.0458 527.137 42.2947 527.137 43.5426C527.137 43.6067 527.137 43.6709 527.137 43.7693C526.486 42.8094 525.568 42.3389 524.487 42.3895C523.215 42.4482 522.246 43.0116 521.558 44.0745C520.917 45.0651 520.939 46.174 521.167 47.2585C521.582 49.2325 523.454 50.1943 525.333 49.8926C526.091 49.7707 526.671 49.3436 527.138 48.7088C527.138 49.0429 527.146 49.3779 527.134 49.7111C527.129 49.8755 527.165 49.9405 527.344 49.9333C527.726 49.9188 528.11 49.9188 528.492 49.9333C528.671 49.9405 528.702 49.8737 528.701 49.7102C528.695 48.6049 528.698 47.4996 528.698 46.3953L528.697 46.3971ZM526.216 48.2871C525.53 48.8018 524.771 48.8758 523.994 48.5354C523.211 48.1923 522.743 47.5746 522.647 46.7104C522.556 45.8977 522.699 45.1455 523.307 44.5414C523.966 43.8867 524.908 43.7043 525.77 44.0718C526.609 44.4303 527.147 45.2556 527.139 46.1767C527.139 46.2138 527.139 46.2517 527.139 46.2887C527.17 47.115 526.873 47.794 526.217 48.2862L526.216 48.2871Z" fill="#F5911E"/>
<path d="M506.358 49.7539C505.971 48.8572 505.583 47.9605 505.194 47.0638C504.224 44.8252 503.252 42.5885 502.288 40.3481C502.228 40.2099 502.159 40.1675 502.014 40.1711C501.589 40.181 501.162 40.1837 500.736 40.1702C500.584 40.1657 500.524 40.2244 500.469 40.3553C500.068 41.2944 499.66 42.2291 499.255 43.1655C498.303 45.3634 497.351 47.5623 496.395 49.7593C496.332 49.9038 496.354 49.9363 496.508 49.9336C496.94 49.9255 497.373 49.9255 497.805 49.9336C497.938 49.9363 498 49.8912 498.049 49.7674C498.304 49.1317 498.569 48.5014 498.826 47.8666C498.871 47.7546 498.922 47.704 499.052 47.705C500.578 47.7104 502.103 47.7095 503.627 47.7059C503.735 47.7059 503.789 47.7375 503.831 47.8413C504.056 48.4021 504.289 48.9583 504.519 49.5164C504.632 49.7921 504.836 49.9303 505.131 49.9309H506.402C506.416 49.8505 506.38 49.8045 506.358 49.7539ZM499.452 46.2999C500.064 44.8758 500.668 43.4716 501.287 42.0313C501.906 43.4698 502.51 44.8749 503.123 46.2999H499.452Z" fill="#F5911E"/>
<path d="M520.047 44.919C520.034 43.8201 519.411 43.0128 518.375 42.6804C517.603 42.4321 516.818 42.4592 516.033 42.5911C515.351 42.7057 514.715 42.9523 514.128 43.3261C514.017 43.3965 513.991 43.4543 514.066 43.5762C514.241 43.8553 514.402 44.1433 514.563 44.4314C514.611 44.5172 514.643 44.528 514.727 44.4666C515.425 43.9555 516.209 43.755 517.065 43.8119C517.964 43.8715 518.492 44.4179 518.499 45.2938C518.499 45.4347 518.461 45.4735 518.323 45.4717C517.669 45.4645 517.014 45.4654 516.36 45.4699C515.952 45.4726 515.546 45.5024 515.152 45.6162C514.451 45.8184 513.899 46.2049 513.65 46.931C513.275 48.0227 513.772 49.0738 514.635 49.5976C515.096 49.8766 515.6 49.9326 516.126 49.9534C516.953 49.9859 517.666 49.7348 518.291 49.1975C518.35 49.1461 518.408 49.0946 518.496 49.0169C518.496 49.2978 518.501 49.5344 518.494 49.7719C518.49 49.8892 518.521 49.9371 518.648 49.9344C519.067 49.9272 519.487 49.929 519.907 49.9344C520.014 49.9353 520.059 49.9109 520.058 49.7908C520.053 48.1681 520.068 46.5445 520.049 44.9217L520.047 44.919ZM517.107 48.6792C516.683 48.8074 516.255 48.8779 515.817 48.7532C515.15 48.5636 514.893 48.0615 515.038 47.3662C515.09 47.1188 515.251 46.9499 515.477 46.8461C515.682 46.7522 515.898 46.7025 516.121 46.698C516.484 46.6908 516.848 46.6962 517.212 46.6962V46.6871C517.587 46.6871 517.964 46.6917 518.34 46.6844C518.464 46.6817 518.493 46.7251 518.496 46.8443C518.513 47.7699 518.043 48.3957 517.107 48.6792Z" fill="#F5911E"/>
<path d="M499.96 60.7985C499.656 60.096 499.349 59.3952 499.043 58.6936C498.28 56.9426 497.515 55.1917 496.757 53.438C496.707 53.3215 496.649 53.2818 496.525 53.2854C496.204 53.2944 495.882 53.2944 495.562 53.2854C495.437 53.2818 495.382 53.3242 495.332 53.4398C494.384 55.626 493.43 57.8104 492.477 59.9957C492.321 60.3533 492.166 60.7118 492.001 61.092C492.429 61.092 492.83 61.0866 493.23 61.0956C493.352 61.0983 493.403 61.046 493.445 60.9421C493.642 60.4581 493.848 59.9777 494.042 59.4919C494.091 59.3681 494.152 59.3239 494.285 59.3248C495.457 59.3302 496.631 59.3302 497.804 59.3248C497.938 59.3248 497.998 59.3699 498.047 59.4919C498.241 59.9768 498.445 60.459 498.646 60.9412C498.677 61.0125 498.691 61.0956 498.803 61.0947C499.222 61.0902 499.64 61.0929 500.064 61.0929C500.055 60.9746 499.999 60.8897 499.96 60.8003V60.7985ZM494.576 58.1229C494.552 58.1229 494.529 58.1175 494.485 58.1111C494.97 56.9751 495.451 55.85 495.952 54.6797C496.45 55.8446 496.932 56.9697 497.425 58.1229C496.453 58.1229 495.515 58.1229 494.577 58.1229H494.576Z" fill="#231F20"/>
<path d="M548.836 49.2077C548.816 48.301 548.253 47.5985 547.386 47.3691C546.203 47.0558 545.106 47.3411 544.064 47.929C543.974 47.9796 543.998 48.0256 544.038 48.0915C544.18 48.3254 544.324 48.5584 544.454 48.7986C544.514 48.9088 544.563 48.8925 544.652 48.8365C545.269 48.4464 545.938 48.2884 546.665 48.3814C547.292 48.4609 547.639 48.8356 547.658 49.4542C547.664 49.6158 547.627 49.6619 547.459 49.6628C546.775 49.6673 546.089 49.6149 545.406 49.6944C544.977 49.7441 544.57 49.8705 544.239 50.1667C543.436 50.8864 543.533 52.2454 544.422 52.9127C545.012 53.3561 545.684 53.3363 546.355 53.2667C546.855 53.2153 547.276 52.9615 547.656 52.5488C547.656 52.7881 547.656 52.9733 547.656 53.1593C547.656 53.2198 547.642 53.2911 547.743 53.283C548.075 53.2559 548.407 53.2297 548.739 53.2044C548.828 53.1981 548.846 53.1475 548.846 53.0663C548.844 51.7804 548.862 50.4936 548.835 49.2086L548.836 49.2077ZM546.416 52.3159C546.122 52.3691 545.829 52.38 545.54 52.2824C545.102 52.1343 544.858 51.7686 544.903 51.328C544.942 50.9541 545.182 50.7518 545.633 50.7058C546.002 50.6687 546.372 50.6751 546.742 50.676C546.994 50.676 547.248 50.6814 547.5 50.6742C547.617 50.6706 547.658 50.7022 547.659 50.8295C547.673 51.6512 547.247 52.1651 546.416 52.3159Z" fill="#231F20"/>
<path d="M556.715 57.5527C554.607 57.5527 552.899 59.2811 552.899 61.414C552.899 63.5469 554.607 65.2753 556.715 65.2753C558.823 65.2753 560.532 63.5469 560.532 61.414C560.532 59.2811 558.823 57.5527 556.715 57.5527ZM556.814 63.4972C555.576 63.4972 554.572 62.4813 554.572 61.228C554.572 59.9746 555.576 58.9587 556.814 58.9587C558.053 58.9587 559.057 59.9746 559.057 61.228C559.057 62.4813 558.053 63.4972 556.814 63.4972Z" fill="#009F4E"/>
<path d="M513.222 13C512.684 13.996 512.148 14.9938 511.606 15.9889C509.465 19.9261 507.323 23.8624 505.181 27.7995C503.691 30.5393 502.2 33.2781 500.713 36.0188C500.642 36.1515 500.597 36.1651 500.476 36.0712C499.989 35.6973 499.496 35.3325 499 34.9713C498.901 34.9 498.885 34.8485 498.946 34.7347C502.419 28.2691 505.888 21.8017 509.357 15.3352C509.385 15.281 509.41 15.225 509.453 15.1383H509.222C505.208 15.1383 501.192 15.1374 497.178 15.1419C497 15.1419 496.936 15.1112 496.942 14.9126C496.958 14.2759 496.95 13.6384 496.951 13.0009C502.374 13 507.799 13 513.222 13Z" fill="#231F20"/>
<path d="M525.194 13C525.194 13.6501 525.189 14.2994 525.198 14.9496C525.201 15.1112 525.15 15.1419 525.001 15.141C522.216 15.1365 519.431 15.1392 516.646 15.1347C516.504 15.1347 516.43 15.1762 516.359 15.3036C514.243 19.1116 512.121 22.916 510.004 26.724C509.937 26.845 509.888 26.8622 509.766 26.8044C509.313 26.5913 508.855 26.389 508.397 26.1876C508.305 26.147 508.261 26.1217 508.326 26.0043C510.696 21.6807 513.06 17.3552 515.425 13.0307C515.431 13.0198 515.439 13.0099 515.445 13C518.695 13 521.944 13 525.193 13H525.194Z" fill="#231F20"/>
<path d="M524.601 28.6199C524.233 26.9927 523.346 25.6608 522.125 24.5789C520.027 22.7214 517.615 22.2609 514.958 23.0826C514.514 23.2199 514.525 23.2334 514.517 23.703C514.514 23.8818 514.569 23.8872 514.698 23.8105C514.8 23.75 514.877 23.7265 514.951 23.8746C515.014 24.0001 515.152 24.0588 515.303 24.0001C515.468 23.9369 515.573 23.8294 515.565 23.6362C515.563 23.5928 515.511 23.5234 515.58 23.5063C515.743 23.4647 515.898 23.3725 516.075 23.424C516.078 23.4791 516.075 23.5351 516.085 23.5892C516.323 24.9781 516.555 26.3678 516.802 27.754C516.882 28.2019 517.079 28.619 517.204 29.0561C517.228 29.1347 517.277 29.2114 517.241 29.3415C516.955 28.7193 516.759 28.0953 516.443 27.5255C516.123 26.9485 515.817 26.3633 515.504 25.7827C515.199 25.2156 514.894 24.6485 514.589 24.0805C514.938 24.9961 515.335 25.8883 515.71 26.7895C516.083 27.6889 516.505 28.5622 517.011 29.3956C516.844 29.2548 516.739 29.0715 516.633 28.8918C516.359 28.4294 516.041 28.0077 515.66 27.6257C514.914 26.878 514.192 26.1059 513.459 25.3456C513.317 25.1984 513.164 25.0603 513.017 24.9185C513.424 25.4522 513.84 25.9777 514.257 26.5015C514.671 27.0225 515.094 27.5363 515.498 28.0646C515.901 28.592 516.407 29.0218 516.834 29.5275C515.361 28.2461 513.626 27.3666 512.029 26.2775C512.041 26.3182 512.066 26.3407 512.091 26.3615C512.913 27.0117 513.745 27.6501 514.555 28.3156C515.138 28.7942 515.751 29.215 516.443 29.5166C516.505 29.5437 516.565 29.5781 516.62 29.6178C516.661 29.6476 516.748 29.6639 516.722 29.7253C516.683 29.8165 516.616 29.7398 516.568 29.7181C516.174 29.5402 515.793 29.3234 515.386 29.1852C514.076 28.7428 512.758 28.3283 511.443 27.9039C511.414 27.8948 511.38 27.8695 511.341 27.9174C511.956 28.1766 512.564 28.4349 513.172 28.6887C514.231 29.1294 515.265 29.6404 516.4 29.8652C516.481 29.8806 516.567 29.8896 516.633 29.96C516.571 30.0097 516.521 29.9754 516.469 29.9663C516.062 29.8968 515.657 29.8002 515.246 29.7668C514.619 29.7162 513.989 29.71 513.36 29.6838C512.94 29.6657 512.522 29.6368 512.102 29.6269C511.674 29.617 511.246 29.625 510.97 29.625C511.511 29.6991 512.207 29.7957 512.902 29.8905C514.081 30.0512 515.252 30.2869 516.451 30.2192C516.507 30.2165 516.573 30.1921 516.631 30.2662C516.51 30.3176 516.39 30.3131 516.272 30.3258C515.867 30.37 515.459 30.3601 515.06 30.4585C514.318 30.6427 513.575 30.8233 512.832 31.0075C512.278 31.1448 511.724 31.2858 511.135 31.4339C511.252 31.4655 511.328 31.4447 511.406 31.4339C512.15 31.3273 512.895 31.217 513.641 31.1159C514.581 30.9886 515.527 30.8948 516.415 30.5182C516.49 30.4866 516.571 30.4496 516.714 30.4956C514.912 31.1584 513.365 32.2185 511.682 33.0727C511.769 33.1152 511.804 33.0772 511.842 33.061C512.688 32.6989 513.53 32.3268 514.38 31.9738C515.129 31.6622 515.869 31.3398 516.502 30.8134C516.535 30.7863 516.573 30.7619 516.613 30.7466C516.664 30.7267 516.724 30.6454 516.769 30.7276C516.803 30.7908 516.717 30.8143 516.677 30.8459C516.189 31.2387 515.696 31.6234 515.253 32.0704C514.588 32.7413 513.906 33.3943 513.235 34.058C513.062 34.2287 512.898 34.4092 512.73 34.5862C512.772 34.5898 512.793 34.5537 512.82 34.532C513.355 34.0886 513.892 33.647 514.423 33.201C515.23 32.5246 516.084 31.8998 516.739 31.0546C516.777 31.0058 516.826 30.966 516.87 30.9217C516.898 30.8937 516.929 30.873 516.964 30.9091C516.995 30.9407 516.97 30.966 516.951 30.9904C516.929 31.0202 516.903 31.0474 516.88 31.0772C516.591 31.4664 516.244 31.8122 516.002 32.2357C515.388 33.3112 514.787 34.3947 514.18 35.4748C514.117 35.5858 514.055 35.697 513.992 35.8081C514.061 35.7747 514.101 35.724 514.138 35.6707C514.641 34.9519 515.137 34.2277 515.649 33.5152C516.154 32.8118 516.637 32.0975 516.98 31.2947C517.013 31.2206 517.054 31.1502 517.094 31.0798C517.113 31.0455 517.127 30.985 517.186 31.022C517.229 31.0491 517.197 31.0906 517.186 31.1222C517.144 31.2261 517.097 31.3281 517.054 31.4319C516.914 31.7715 516.715 32.0885 516.622 32.4443C516.254 33.8359 515.901 35.2309 515.542 36.6243C515.532 36.664 515.5 36.7065 515.555 36.7381C515.811 36.0373 516.066 35.3367 516.324 34.636C516.562 33.9876 516.809 33.3427 517.04 32.6917C517.18 32.2961 517.185 31.8717 517.261 31.4626C517.285 31.3317 517.298 31.1981 517.386 31.0418C517.437 31.2351 517.383 31.385 517.355 31.5268C517.225 32.1968 517.176 32.8659 517.204 33.5513C517.252 34.7171 517.246 35.8857 517.27 37.0524C517.272 37.187 517.24 37.2347 517.106 37.1968C517.048 37.1806 516.984 37.1843 516.922 37.1779C516.78 37.1644 516.672 37.1491 516.721 36.9387C516.76 36.7716 516.581 36.5864 516.407 36.5548C516.254 36.5268 516.053 36.6496 516.015 36.8293C515.988 36.9548 515.944 36.9629 515.847 36.9214C515.751 36.8799 515.652 36.8437 515.555 36.8058C515.347 36.7453 515.154 36.6496 514.962 36.553C514.617 36.3787 514.63 36.3796 514.612 36.7742C514.603 36.9693 514.673 37.0588 514.839 37.1382C516.213 37.8001 517.65 38.0267 519.145 37.7377C520.632 37.4506 521.96 36.8239 522.935 35.6138C524.591 33.5595 525.189 31.2252 524.599 28.6199H524.601ZM517.362 28.7745C517.358 27.8624 517.065 27.0117 516.832 26.1484C516.594 25.2652 516.354 24.383 516.114 23.5016C516.107 23.4746 516.089 23.4502 516.075 23.424C516.156 23.3192 516.283 23.3698 516.382 23.3265C516.525 23.2641 516.571 23.3888 516.645 23.4637C516.884 23.7039 517.133 23.6543 517.266 23.3382C517.295 23.2696 517.338 23.2624 517.395 23.2652C517.524 23.2715 517.652 23.2786 517.781 23.2858C517.855 23.2858 517.929 23.2822 518.002 23.2876C518.18 23.3012 518.34 23.3039 518.313 23.5802C518.298 23.7391 518.446 23.8547 518.617 23.88C518.796 23.9071 518.935 23.816 518.985 23.6607C519.038 23.4936 519.105 23.4863 519.25 23.5351C519.566 23.6416 519.566 23.6326 519.452 23.9459C518.985 25.2264 518.515 26.506 518.059 27.7901C517.934 28.1423 517.926 28.5242 517.854 28.8909C517.827 29.0272 517.796 29.1636 517.768 29.2999L517.715 29.2936C517.729 29.1211 517.743 28.9486 517.757 28.7771C517.788 28.4104 517.827 28.0438 517.828 27.6754C517.828 26.3642 517.829 25.0521 517.826 23.7409C517.826 23.6389 517.858 23.5296 517.785 23.4357C517.743 24.0696 517.699 24.7045 517.657 25.3384C517.572 26.6062 517.398 27.8705 517.479 29.1465C517.482 29.1862 517.473 29.2259 517.466 29.3162C517.352 29.1148 517.362 28.9388 517.362 28.7745ZM518.916 37.1553C518.898 37.1553 518.88 37.1617 518.862 37.1653C518.507 37.233 518.505 37.2311 518.383 36.9015C518.308 36.6965 518.136 36.6009 517.972 36.6732C517.758 36.7671 517.68 36.9684 517.781 37.1733C517.786 37.1842 517.787 37.1968 517.794 37.2248C517.653 37.2248 517.516 37.2275 517.379 37.2248C517.267 37.2221 517.3 37.1354 517.304 37.0731C517.414 35.649 517.531 34.226 517.633 32.801C517.669 32.2971 517.65 31.7895 517.637 31.2839C517.635 31.2197 517.613 31.152 517.665 31.0689C517.727 31.1818 517.735 31.2993 517.735 31.3995C517.735 32.643 518.163 33.7961 518.469 34.9746C518.644 35.6491 518.829 36.3219 519.017 36.9928C519.049 37.1066 519.043 37.158 518.916 37.1553ZM524.268 30.948C524.259 31.0031 524.267 31.0608 524.256 31.1159C524.233 31.2342 524.266 31.3714 524.044 31.3552C523.881 31.3425 523.755 31.4943 523.734 31.6749C523.712 31.85 523.811 31.9683 523.958 32.0487C524.011 32.0776 524.119 32.0749 524.077 32.1733C524.025 32.297 524.089 32.484 523.898 32.5363L523.902 32.539H523.901C524.04 32.6817 523.869 32.7919 523.857 32.9192C523.848 33.0222 523.766 32.9916 523.701 32.9852C523.526 32.9672 523.42 33.0682 523.357 33.2136C523.299 33.35 523.313 33.4935 523.437 33.5856C523.541 33.6624 523.524 33.7284 523.471 33.8178C523.324 34.0607 523.18 34.3045 523.039 34.5511C522.98 34.6531 522.928 34.6891 522.815 34.607C522.702 34.5257 522.561 34.4905 522.435 34.5853C522.318 34.6738 522.275 34.8003 522.299 34.9493C522.309 35.0215 522.336 35.0964 522.397 35.1208C522.582 35.1957 522.488 35.2779 522.41 35.3556C522.311 35.454 522.242 35.5868 522.101 35.6392C522.002 35.7936 521.841 35.8722 521.694 35.9932C521.654 35.8261 521.565 35.7294 521.398 35.7348C521.12 35.7439 521.004 35.9254 521.126 36.1954C521.181 36.3173 521.158 36.3615 521.05 36.4112C520.833 36.5114 520.619 36.6198 520.406 36.729C520.304 36.7814 520.243 36.7878 520.19 36.6542C520.109 36.4501 519.962 36.3877 519.795 36.45C519.606 36.5205 519.513 36.6993 519.579 36.9015C519.644 37.1002 519.482 37.0099 519.418 37.0442C519.048 37.1625 519.088 37.149 519.04 36.8717C518.798 35.4531 518.566 34.0327 518.3 32.6186C518.209 32.1382 518.027 31.675 517.887 31.2036C517.87 31.1458 517.836 31.0916 517.847 31.0266C517.909 31.0031 517.909 31.0617 517.918 31.0861C518.552 32.7865 519.502 34.3262 520.314 35.9363C520.353 36.014 520.388 36.0933 520.424 36.1719L520.549 36.357C520.582 36.2929 520.539 36.2523 520.521 36.2107C519.994 34.9664 519.469 33.7211 518.938 32.4785C518.733 31.9999 518.404 31.5963 518.148 31.1484C518.109 31.0789 517.99 30.9822 518.057 30.9362C518.15 30.873 518.178 31.0311 518.242 31.0835C518.279 31.1142 518.306 31.1602 518.33 31.2036C518.727 31.9323 519.263 32.549 519.825 33.1486C520.491 33.8611 521.143 34.5871 521.802 35.3068C521.848 35.3565 521.884 35.4188 521.957 35.435C521.66 34.9817 521.316 34.5646 520.993 34.1312C520.466 33.4223 519.936 32.7151 519.397 32.0162C519.13 31.6703 518.765 31.4221 518.456 31.1178C518.385 31.0483 518.31 30.9822 518.242 30.9091C518.215 30.8793 518.137 30.8513 518.195 30.7935C518.247 30.7411 518.285 30.8081 518.317 30.8361C518.519 31.0103 518.729 31.1773 518.916 31.3669C519.435 31.8898 520.079 32.2284 520.683 32.6248C521.419 33.107 522.161 33.5784 522.901 34.0534C522.951 34.0859 523.003 34.1166 523.073 34.1211C522.844 33.9423 522.616 33.7635 522.386 33.5856C521.497 32.9003 520.612 32.2113 519.718 31.5331C519.318 31.2297 518.884 30.9759 518.458 30.7104C518.409 30.6797 518.294 30.677 518.336 30.5894C518.366 30.5253 518.445 30.5948 518.498 30.6165C518.595 30.6563 518.694 30.6952 518.782 30.7512C519.378 31.1295 520.028 31.3678 520.7 31.5665C521.724 31.8681 522.74 32.1923 523.761 32.5056C523.807 32.5201 523.855 32.5282 523.902 32.539C523.56 32.3422 523.188 32.2131 522.827 32.0559C521.91 31.655 520.99 31.2622 520.071 30.8685C519.636 30.6824 519.166 30.6338 518.714 30.511C518.614 30.4839 518.502 30.4793 518.424 30.3718C518.687 30.4115 518.951 30.4449 519.212 30.4919C519.62 30.566 520.031 30.6058 520.444 30.622C521.665 30.669 522.886 30.7213 524.108 30.7628C524.252 30.7673 524.293 30.8152 524.272 30.9488L524.268 30.948ZM524.137 30.7411C522.719 30.5678 521.302 30.3844 519.882 30.2282C519.486 30.1849 519.08 30.2201 518.68 30.2174C518.607 30.2174 518.532 30.2319 518.457 30.1994C518.474 30.1154 518.541 30.1433 518.589 30.1397C518.976 30.1063 519.366 30.0982 519.749 30.0404C520.413 29.9393 521.055 29.7361 521.708 29.5781C522.468 29.3947 523.227 29.2034 523.986 29.0147C524.02 29.0065 524.052 28.9903 524.084 28.9767C523.52 29.0228 522.962 29.1247 522.401 29.2015C521.534 29.3207 520.665 29.4328 519.802 29.5763C519.384 29.6459 518.976 29.7777 518.565 29.8825C518.518 29.8942 518.476 29.9302 518.417 29.8977C518.451 29.8164 518.532 29.811 518.596 29.7894C520.3 29.2096 521.771 28.163 523.359 27.3521C523.369 27.3476 523.373 27.3331 523.38 27.3232C522.924 27.4776 522.495 27.698 522.053 27.8885C521.271 28.2262 520.492 28.573 519.713 28.9161C519.264 29.1139 518.868 29.4048 518.446 29.6495C518.405 29.673 518.358 29.7532 518.308 29.6864C518.262 29.6232 518.341 29.5907 518.381 29.5591C518.478 29.4814 518.575 29.4038 518.679 29.3378C519.196 29.0119 519.637 28.5983 520.062 28.1594C520.791 27.4045 521.536 26.664 522.273 25.9172C522.318 25.8712 522.36 25.8233 522.39 25.7592C521.075 26.8934 519.655 27.8984 518.413 29.1609C518.427 29.1193 518.429 29.1013 518.438 29.0886C519.297 27.865 519.981 26.5332 520.75 25.2545C520.849 25.0911 520.969 24.9366 521.02 24.7461C520.833 24.9384 520.698 25.1713 520.545 25.389C519.968 26.2062 519.398 27.0288 518.822 27.8479C518.532 28.2624 518.358 28.741 518.115 29.1807C518.074 29.2539 518.055 29.4101 517.957 29.3676C517.874 29.3315 517.973 29.2123 518.007 29.1419C518.596 27.8993 518.824 26.5466 519.185 25.2354C519.313 24.7677 519.435 24.2972 519.545 23.8249C519.58 23.6696 519.641 23.6497 519.766 23.7157C519.815 23.7418 519.868 23.7572 519.92 23.7789C519.975 23.8014 520.009 23.8141 519.966 23.8963C519.874 24.0705 519.928 24.2259 520.089 24.3288C520.251 24.4327 520.425 24.4227 520.529 24.2593C520.618 24.1184 520.69 24.1536 520.79 24.2213C520.881 24.2837 520.976 24.3433 521.07 24.4038C521.122 24.4381 521.177 24.4715 521.16 24.5491C521.352 24.5049 521.423 24.6882 521.548 24.7668C521.639 24.8246 521.528 24.8825 521.505 24.9357C521.424 25.1209 521.441 25.2616 521.57 25.3564C521.733 25.4774 521.894 25.4775 522.033 25.334C522.101 25.2626 522.13 25.2932 522.173 25.3447C522.379 25.5903 522.586 25.8369 522.792 26.0826C522.834 26.1322 522.855 26.1719 522.804 26.2414C522.722 26.3516 522.731 26.4906 522.75 26.6207C522.788 26.8582 522.929 26.9421 523.149 26.8438C523.256 26.7959 523.302 26.8193 523.346 26.916C523.384 27.0008 523.432 27.0812 523.479 27.1616C523.51 27.213 523.508 27.2528 523.454 27.2844C523.541 27.3142 523.728 27.605 523.706 27.6745C523.695 27.7115 523.656 27.7025 523.631 27.716C523.453 27.8117 523.378 27.9662 523.429 28.1269C523.489 28.3174 523.647 28.4258 523.842 28.3752C523.955 28.3454 523.986 28.3871 524 28.4774C524.025 28.6444 524.134 28.797 524.081 28.9767H524.084L524.08 28.9784C524.201 29.1283 524.17 29.3189 524.209 29.4905C524.218 29.5293 524.178 29.5356 524.147 29.541C524.11 29.5473 524.075 29.5546 524.039 29.5627C523.789 29.6214 523.695 29.7072 523.707 29.8643C523.72 30.035 523.931 30.212 524.13 30.2165C524.172 30.2174 524.214 30.2084 524.273 30.202C524.273 30.3465 524.268 30.4902 524.275 30.632C524.279 30.7421 524.222 30.7538 524.135 30.7429L524.137 30.7411Z" fill="#231F20"/>
</g>
<path d="M109.778 23.178L106.918 30.9L110.324 40H106.606L104.11 33.344H102.94V40H99.3V23.178H102.94V30.224H103.824L106.45 23.178H109.778Z" fill="#056839"/>
<path d="M115.204 23.178V40H111.564V23.178H115.204Z" fill="#056839"/>
<path d="M127.245 27.598H123.787V26.272C123.787 26.1333 123.735 26.012 123.631 25.908C123.545 25.804 123.432 25.752 123.293 25.752H121.863C121.725 25.752 121.603 25.804 121.499 25.908C121.413 26.012 121.369 26.1333 121.369 26.272V29.262C121.369 29.4006 121.413 29.522 121.499 29.626C121.603 29.73 121.725 29.782 121.863 29.782H124.203C126.353 29.8166 127.427 30.9606 127.427 33.214V36.828C127.427 39.116 126.353 40.26 124.203 40.26H121.135C118.986 40.26 117.911 39.116 117.911 36.828V35.086H121.369V36.958C121.369 37.0966 121.413 37.218 121.499 37.322C121.603 37.426 121.725 37.478 121.863 37.478H123.475C123.614 37.478 123.727 37.426 123.813 37.322C123.917 37.218 123.969 37.0966 123.969 36.958V33.656C123.969 33.5173 123.917 33.396 123.813 33.292C123.727 33.188 123.614 33.136 123.475 33.136H121.135C118.986 33.136 117.911 31.992 117.911 29.704V26.35C117.911 24.062 118.986 22.918 121.135 22.918H124.021C126.171 22.918 127.245 24.062 127.245 26.35V27.598Z" fill="#056839"/>
<path d="M136.502 22.918C138.651 22.918 139.726 24.062 139.726 26.35V40H136.086V34.358H133.46V40H129.82V26.35C129.82 24.062 130.894 22.918 133.044 22.918H136.502ZM133.46 31.55H136.086V25.908C136.086 25.7693 136.034 25.648 135.93 25.544C135.843 25.44 135.73 25.388 135.592 25.388H133.954C133.815 25.388 133.694 25.44 133.59 25.544C133.503 25.648 133.46 25.7693 133.46 25.908V31.55Z" fill="#056839"/>
<path d="M152.085 40H148.445V26.038C148.445 25.8993 148.393 25.778 148.289 25.674C148.202 25.57 148.089 25.518 147.951 25.518H146.547C146.408 25.518 146.287 25.57 146.183 25.674C146.096 25.778 146.053 25.8993 146.053 26.038V40H142.413V26.35C142.413 24.062 143.487 22.918 145.637 22.918H148.861C151.01 22.918 152.085 24.062 152.085 26.35V40Z" fill="#056839"/>
<path d="M166.047 37.244V34.644H169.505V36.828C169.505 39.116 168.43 40.26 166.281 40.26H163.005C160.855 40.26 159.781 39.116 159.781 36.828V26.35C159.781 24.062 160.855 22.918 163.005 22.918H166.281C168.43 22.918 169.505 24.062 169.505 26.35V27.936H166.047V25.908C166.047 25.7693 165.995 25.648 165.891 25.544C165.804 25.44 165.691 25.388 165.553 25.388H163.915C163.776 25.388 163.655 25.44 163.551 25.544C163.464 25.648 163.421 25.7693 163.421 25.908V37.244C163.421 37.3826 163.464 37.504 163.551 37.608C163.655 37.712 163.776 37.764 163.915 37.764H165.553C165.691 37.764 165.804 37.712 165.891 37.608C165.995 37.504 166.047 37.3826 166.047 37.244Z" fill="#056839"/>
<path d="M175.329 33.11V40H171.689V23.178H178.163C180.312 23.178 181.387 24.322 181.387 26.61V28.56C181.387 29.9466 180.893 30.8306 179.905 31.212C180.771 31.524 181.205 32.2346 181.205 33.344V40H177.565V33.63C177.565 33.2833 177.4 33.11 177.071 33.11H175.329ZM175.329 25.648V30.562H177.253C177.391 30.562 177.504 30.51 177.591 30.406C177.695 30.302 177.747 30.1806 177.747 30.042V26.168C177.747 26.0293 177.695 25.908 177.591 25.804C177.504 25.7 177.391 25.648 177.253 25.648H175.329Z" fill="#056839"/>
<path d="M187.364 36.984H191.394V40H183.724V23.178H191.394V26.142H187.364V30.094H191.134V32.954H187.364V36.984Z" fill="#056839"/>
<path d="M200.181 23.178C202.331 23.178 203.405 24.322 203.405 26.61V36.568C203.405 38.856 202.331 40 200.181 40H193.499V23.178H200.181ZM199.765 36.984V26.168C199.765 26.0293 199.713 25.908 199.609 25.804C199.523 25.7 199.41 25.648 199.271 25.648H197.139V37.504H199.271C199.41 37.504 199.523 37.452 199.609 37.348C199.713 37.244 199.765 37.1226 199.765 36.984Z" fill="#056839"/>
<path d="M209.758 23.178V40H206.118V23.178H209.758Z" fill="#056839"/>
<path d="M211.504 26.272V23.178H220.604V26.272H217.874V40H214.234V26.272H211.504Z" fill="#056839"/>
<path d="M233.789 37.244V34.644H237.247V36.828C237.247 39.116 236.172 40.26 234.023 40.26H230.747C228.597 40.26 227.523 39.116 227.523 36.828V26.35C227.523 24.062 228.597 22.918 230.747 22.918H234.023C236.172 22.918 237.247 24.062 237.247 26.35V27.936H233.789V25.908C233.789 25.7693 233.737 25.648 233.633 25.544C233.546 25.44 233.433 25.388 233.295 25.388H231.657C231.518 25.388 231.397 25.44 231.293 25.544C231.206 25.648 231.163 25.7693 231.163 25.908V37.244C231.163 37.3826 231.206 37.504 231.293 37.608C231.397 37.712 231.518 37.764 231.657 37.764H233.295C233.433 37.764 233.546 37.712 233.633 37.608C233.737 37.504 233.789 37.3826 233.789 37.244Z" fill="#056839"/>
<path d="M246.113 22.918C248.262 22.918 249.337 24.062 249.337 26.35V40H245.697V34.358H243.071V40H239.431V26.35C239.431 24.062 240.506 22.918 242.655 22.918H246.113ZM243.071 31.55H245.697V25.908C245.697 25.7693 245.645 25.648 245.541 25.544C245.454 25.44 245.342 25.388 245.203 25.388H243.565C243.426 25.388 243.305 25.44 243.201 25.544C243.114 25.648 243.071 25.7693 243.071 25.908V31.55Z" fill="#056839"/>
<path d="M255.69 33.11V40H252.05V23.178H258.524C260.673 23.178 261.748 24.322 261.748 26.61V28.56C261.748 29.9466 261.254 30.8306 260.266 31.212C261.133 31.524 261.566 32.2346 261.566 33.344V40H257.926V33.63C257.926 33.2833 257.761 33.11 257.432 33.11H255.69ZM255.69 25.648V30.562H257.614C257.753 30.562 257.865 30.51 257.952 30.406C258.056 30.302 258.108 30.1806 258.108 30.042V26.168C258.108 26.0293 258.056 25.908 257.952 25.804C257.865 25.7 257.753 25.648 257.614 25.648H255.69Z" fill="#056839"/>
<path d="M270.767 23.178C272.917 23.178 273.991 24.322 273.991 26.61V36.568C273.991 38.856 272.917 40 270.767 40H264.085V23.178H270.767ZM270.351 36.984V26.168C270.351 26.0293 270.299 25.908 270.195 25.804C270.109 25.7 269.996 25.648 269.857 25.648H267.725V37.504H269.857C269.996 37.504 270.109 37.452 270.195 37.348C270.299 37.244 270.351 37.1226 270.351 36.984Z" fill="#056839"/>
<path d="M100.203 51.4688V60H99.0723V51.4688H100.203Z" fill="black"/>
<path d="M104.08 55.0137V60H102.996V53.6602H104.021L104.08 55.0137ZM103.822 56.5898L103.371 56.5723C103.375 56.1387 103.439 55.7383 103.564 55.3711C103.689 55 103.865 54.6777 104.091 54.4043C104.318 54.1309 104.588 53.9199 104.9 53.7715C105.216 53.6191 105.566 53.543 105.949 53.543C106.261 53.543 106.543 53.5859 106.793 53.6719C107.043 53.7539 107.255 53.8867 107.431 54.0703C107.611 54.2539 107.748 54.4922 107.841 54.7852C107.935 55.0742 107.982 55.4277 107.982 55.8457V60H106.892V55.834C106.892 55.502 106.843 55.2363 106.746 55.0371C106.648 54.834 106.505 54.6875 106.318 54.5977C106.13 54.5039 105.9 54.457 105.627 54.457C105.357 54.457 105.111 54.5137 104.888 54.627C104.67 54.7402 104.48 54.8965 104.32 55.0957C104.164 55.2949 104.041 55.5234 103.951 55.7812C103.865 56.0352 103.822 56.3047 103.822 56.5898Z" fill="black"/>
<path d="M113.183 53.6602V54.4922H109.755V53.6602H113.183ZM110.915 52.1191H111.999V58.4297C111.999 58.6445 112.032 58.8066 112.099 58.916C112.165 59.0254 112.251 59.0977 112.357 59.1328C112.462 59.168 112.575 59.1855 112.696 59.1855C112.786 59.1855 112.88 59.1777 112.978 59.1621C113.079 59.1426 113.155 59.127 113.206 59.1152L113.212 60C113.126 60.0273 113.013 60.0527 112.872 60.0762C112.736 60.1035 112.57 60.1172 112.374 60.1172C112.109 60.1172 111.864 60.0645 111.642 59.959C111.419 59.8535 111.241 59.6777 111.109 59.4316C110.98 59.1816 110.915 58.8457 110.915 58.4238V52.1191Z" fill="black"/>
<path d="M117.985 60.1172C117.544 60.1172 117.143 60.043 116.784 59.8945C116.429 59.7422 116.122 59.5293 115.864 59.2559C115.61 58.9824 115.415 58.6582 115.278 58.2832C115.141 57.9082 115.073 57.498 115.073 57.0527V56.8066C115.073 56.291 115.149 55.832 115.302 55.4297C115.454 55.0234 115.661 54.6797 115.923 54.3984C116.184 54.1172 116.481 53.9043 116.813 53.7598C117.145 53.6152 117.489 53.543 117.845 53.543C118.298 53.543 118.688 53.6211 119.016 53.7773C119.348 53.9336 119.62 54.1523 119.831 54.4336C120.042 54.7109 120.198 55.0391 120.3 55.418C120.401 55.793 120.452 56.2031 120.452 56.6484V57.1348H115.718V56.25H119.368V56.168C119.352 55.8867 119.294 55.6133 119.192 55.3477C119.095 55.082 118.938 54.8633 118.723 54.6914C118.509 54.5195 118.216 54.4336 117.845 54.4336C117.598 54.4336 117.372 54.4863 117.165 54.5918C116.958 54.6934 116.78 54.8457 116.632 55.0488C116.483 55.252 116.368 55.5 116.286 55.793C116.204 56.0859 116.163 56.4238 116.163 56.8066V57.0527C116.163 57.3535 116.204 57.6367 116.286 57.9023C116.372 58.1641 116.495 58.3945 116.655 58.5938C116.819 58.793 117.016 58.9492 117.247 59.0625C117.481 59.1758 117.747 59.2324 118.044 59.2324C118.427 59.2324 118.751 59.1543 119.016 58.998C119.282 58.8418 119.514 58.6328 119.714 58.3711L120.37 58.8926C120.233 59.0996 120.059 59.2969 119.848 59.4844C119.638 59.6719 119.378 59.8242 119.069 59.9414C118.764 60.0586 118.403 60.1172 117.985 60.1172Z" fill="black"/>
<path d="M123.702 54.6562V60H122.618V53.6602H123.672L123.702 54.6562ZM125.682 53.625L125.676 54.6328C125.586 54.6133 125.5 54.6016 125.418 54.5977C125.34 54.5898 125.25 54.5859 125.149 54.5859C124.899 54.5859 124.678 54.625 124.487 54.7031C124.295 54.7812 124.133 54.8906 124 55.0312C123.868 55.1719 123.762 55.3398 123.684 55.5352C123.61 55.7266 123.561 55.9375 123.538 56.168L123.233 56.3438C123.233 55.9609 123.27 55.6016 123.344 55.2656C123.422 54.9297 123.541 54.6328 123.702 54.375C123.862 54.1133 124.065 53.9102 124.311 53.7656C124.561 53.6172 124.858 53.543 125.202 53.543C125.28 53.543 125.37 53.5527 125.471 53.5723C125.573 53.5879 125.643 53.6055 125.682 53.625Z" fill="black"/>
<path d="M130.098 60.1172C129.656 60.1172 129.256 60.043 128.896 59.8945C128.541 59.7422 128.234 59.5293 127.977 59.2559C127.723 58.9824 127.527 58.6582 127.391 58.2832C127.254 57.9082 127.186 57.498 127.186 57.0527V56.8066C127.186 56.291 127.262 55.832 127.414 55.4297C127.566 55.0234 127.773 54.6797 128.035 54.3984C128.297 54.1172 128.594 53.9043 128.926 53.7598C129.258 53.6152 129.602 53.543 129.957 53.543C130.41 53.543 130.801 53.6211 131.129 53.7773C131.461 53.9336 131.732 54.1523 131.943 54.4336C132.154 54.7109 132.311 55.0391 132.412 55.418C132.514 55.793 132.564 56.2031 132.564 56.6484V57.1348H127.83V56.25H131.48V56.168C131.465 55.8867 131.406 55.6133 131.305 55.3477C131.207 55.082 131.051 54.8633 130.836 54.6914C130.621 54.5195 130.328 54.4336 129.957 54.4336C129.711 54.4336 129.484 54.4863 129.277 54.5918C129.07 54.6934 128.893 54.8457 128.744 55.0488C128.596 55.252 128.48 55.5 128.398 55.793C128.316 56.0859 128.275 56.4238 128.275 56.8066V57.0527C128.275 57.3535 128.316 57.6367 128.398 57.9023C128.484 58.1641 128.607 58.3945 128.768 58.5938C128.932 58.793 129.129 58.9492 129.359 59.0625C129.594 59.1758 129.859 59.2324 130.156 59.2324C130.539 59.2324 130.863 59.1543 131.129 58.998C131.395 58.8418 131.627 58.6328 131.826 58.3711L132.482 58.8926C132.346 59.0996 132.172 59.2969 131.961 59.4844C131.75 59.6719 131.49 59.8242 131.182 59.9414C130.877 60.0586 130.516 60.1172 130.098 60.1172Z" fill="black"/>
<path d="M138.421 58.3184C138.421 58.1621 138.386 58.0176 138.316 57.8848C138.25 57.748 138.111 57.625 137.9 57.5156C137.693 57.4023 137.38 57.3047 136.963 57.2227C136.611 57.1484 136.293 57.0605 136.007 56.959C135.726 56.8574 135.486 56.7344 135.287 56.5898C135.091 56.4453 134.941 56.2754 134.836 56.0801C134.73 55.8848 134.677 55.6562 134.677 55.3945C134.677 55.1445 134.732 54.9082 134.841 54.6855C134.955 54.4629 135.113 54.2656 135.316 54.0938C135.523 53.9219 135.771 53.7871 136.06 53.6895C136.349 53.5918 136.671 53.543 137.027 53.543C137.535 53.543 137.968 53.6328 138.328 53.8125C138.687 53.9922 138.963 54.2324 139.154 54.5332C139.345 54.8301 139.441 55.1602 139.441 55.5234H138.357C138.357 55.3477 138.304 55.1777 138.199 55.0137C138.097 54.8457 137.947 54.707 137.748 54.5977C137.552 54.4883 137.312 54.4336 137.027 54.4336C136.726 54.4336 136.482 54.4805 136.295 54.5742C136.111 54.6641 135.976 54.7793 135.89 54.9199C135.808 55.0605 135.767 55.209 135.767 55.3652C135.767 55.4824 135.787 55.5879 135.826 55.6816C135.869 55.7715 135.943 55.8555 136.048 55.9336C136.154 56.0078 136.302 56.0781 136.494 56.1445C136.685 56.2109 136.929 56.2773 137.226 56.3438C137.746 56.4609 138.173 56.6016 138.509 56.7656C138.845 56.9297 139.095 57.1309 139.259 57.3691C139.423 57.6074 139.505 57.8965 139.505 58.2363C139.505 58.5137 139.447 58.7676 139.33 58.998C139.216 59.2285 139.05 59.4277 138.832 59.5957C138.617 59.7598 138.359 59.8887 138.058 59.9824C137.761 60.0723 137.427 60.1172 137.056 60.1172C136.498 60.1172 136.025 60.0176 135.638 59.8184C135.252 59.6191 134.959 59.3613 134.759 59.0449C134.56 58.7285 134.461 58.3945 134.461 58.043H135.55C135.566 58.3398 135.652 58.5762 135.808 58.752C135.964 58.9238 136.156 59.0469 136.382 59.1211C136.609 59.1914 136.834 59.2266 137.056 59.2266C137.353 59.2266 137.601 59.1875 137.8 59.1094C138.004 59.0312 138.158 58.9238 138.263 58.7871C138.369 58.6504 138.421 58.4941 138.421 58.3184Z" fill="black"/>
<path d="M144.484 53.6602V54.4922H141.056V53.6602H144.484ZM142.216 52.1191H143.3V58.4297C143.3 58.6445 143.333 58.8066 143.4 58.916C143.466 59.0254 143.552 59.0977 143.657 59.1328C143.763 59.168 143.876 59.1855 143.997 59.1855C144.087 59.1855 144.181 59.1777 144.279 59.1621C144.38 59.1426 144.456 59.127 144.507 59.1152L144.513 60C144.427 60.0273 144.314 60.0527 144.173 60.0762C144.036 60.1035 143.87 60.1172 143.675 60.1172C143.409 60.1172 143.165 60.0645 142.943 59.959C142.72 59.8535 142.542 59.6777 142.409 59.4316C142.28 59.1816 142.216 58.8457 142.216 58.4238V52.1191Z" fill="black"/>
<path d="M155.243 57.8438C155.243 57.6445 155.211 57.4688 155.149 57.3164C155.09 57.1602 154.985 57.0195 154.832 56.8945C154.684 56.7695 154.477 56.6504 154.211 56.5371C153.95 56.4238 153.618 56.3086 153.215 56.1914C152.793 56.0664 152.412 55.9277 152.073 55.7754C151.733 55.6191 151.442 55.4414 151.2 55.2422C150.957 55.043 150.772 54.8145 150.643 54.5566C150.514 54.2988 150.45 54.0039 150.45 53.6719C150.45 53.3398 150.518 53.0332 150.655 52.752C150.791 52.4707 150.987 52.2266 151.241 52.0195C151.498 51.8086 151.805 51.6445 152.161 51.5273C152.516 51.4102 152.912 51.3516 153.35 51.3516C153.991 51.3516 154.534 51.4746 154.979 51.7207C155.428 51.9629 155.77 52.2812 156.004 52.6758C156.239 53.0664 156.356 53.4844 156.356 53.9297H155.231C155.231 53.6094 155.162 53.3262 155.026 53.0801C154.889 52.8301 154.682 52.6348 154.405 52.4941C154.127 52.3496 153.776 52.2773 153.35 52.2773C152.948 52.2773 152.616 52.3379 152.354 52.459C152.092 52.5801 151.897 52.7441 151.768 52.9512C151.643 53.1582 151.58 53.3945 151.58 53.6602C151.58 53.8398 151.618 54.0039 151.692 54.1523C151.77 54.2969 151.889 54.4316 152.049 54.5566C152.213 54.6816 152.42 54.7969 152.67 54.9023C152.924 55.0078 153.227 55.1094 153.579 55.207C154.063 55.3438 154.481 55.4961 154.832 55.6641C155.184 55.832 155.473 56.0215 155.7 56.2324C155.93 56.4395 156.1 56.6758 156.209 56.9414C156.323 57.2031 156.379 57.5 156.379 57.832C156.379 58.1797 156.309 58.4941 156.168 58.7754C156.028 59.0566 155.827 59.2969 155.565 59.4961C155.303 59.6953 154.989 59.8496 154.621 59.959C154.258 60.0645 153.852 60.1172 153.403 60.1172C153.008 60.1172 152.62 60.0625 152.237 59.9531C151.858 59.8438 151.512 59.6797 151.2 59.4609C150.891 59.2422 150.643 58.9727 150.455 58.6523C150.272 58.3281 150.18 57.9531 150.18 57.5273H151.305C151.305 57.8203 151.362 58.0723 151.475 58.2832C151.588 58.4902 151.743 58.6621 151.938 58.7988C152.137 58.9355 152.362 59.0371 152.612 59.1035C152.866 59.166 153.129 59.1973 153.403 59.1973C153.797 59.1973 154.131 59.1426 154.405 59.0332C154.678 58.9238 154.885 58.7676 155.026 58.5645C155.17 58.3613 155.243 58.1211 155.243 57.8438Z" fill="black"/>
<path d="M162.436 58.5352V53.6602H163.525V60H162.488L162.436 58.5352ZM162.641 57.1992L163.092 57.1875C163.092 57.6094 163.047 58 162.957 58.3594C162.871 58.7148 162.73 59.0234 162.535 59.2852C162.34 59.5469 162.084 59.752 161.768 59.9004C161.451 60.0449 161.066 60.1172 160.613 60.1172C160.305 60.1172 160.021 60.0723 159.764 59.9824C159.51 59.8926 159.291 59.7539 159.107 59.5664C158.924 59.3789 158.781 59.1348 158.68 58.834C158.582 58.5332 158.533 58.1719 158.533 57.75V53.6602H159.617V57.7617C159.617 58.0469 159.648 58.2832 159.711 58.4707C159.777 58.6543 159.865 58.8008 159.975 58.9102C160.088 59.0156 160.213 59.0898 160.35 59.1328C160.49 59.1758 160.635 59.1973 160.783 59.1973C161.244 59.1973 161.609 59.1094 161.879 58.9336C162.148 58.7539 162.342 58.5137 162.459 58.2129C162.58 57.9082 162.641 57.5703 162.641 57.1992Z" fill="black"/>
<path d="M166.072 51H167.162V58.7695L167.068 60H166.072V51ZM171.445 56.7773V56.9004C171.445 57.3613 171.39 57.7891 171.281 58.1836C171.171 58.5742 171.011 58.9141 170.8 59.2031C170.589 59.4922 170.332 59.7168 170.027 59.877C169.722 60.0371 169.373 60.1172 168.978 60.1172C168.576 60.1172 168.222 60.0488 167.918 59.9121C167.617 59.7715 167.363 59.5703 167.156 59.3086C166.949 59.0469 166.783 58.7305 166.658 58.3594C166.537 57.9883 166.453 57.5703 166.406 57.1055V56.5664C166.453 56.0977 166.537 55.6777 166.658 55.3066C166.783 54.9355 166.949 54.6191 167.156 54.3574C167.363 54.0918 167.617 53.8906 167.918 53.7539C168.218 53.6133 168.568 53.543 168.966 53.543C169.365 53.543 169.718 53.6211 170.027 53.7773C170.336 53.9297 170.593 54.1484 170.8 54.4336C171.011 54.7188 171.171 55.0605 171.281 55.459C171.39 55.8535 171.445 56.293 171.445 56.7773ZM170.355 56.9004V56.7773C170.355 56.4609 170.326 56.1641 170.267 55.8867C170.209 55.6055 170.115 55.3594 169.986 55.1484C169.857 54.9336 169.687 54.7656 169.476 54.6445C169.265 54.5195 169.005 54.457 168.697 54.457C168.423 54.457 168.185 54.5039 167.982 54.5977C167.783 54.6914 167.613 54.8184 167.472 54.9785C167.332 55.1348 167.216 55.3145 167.127 55.5176C167.041 55.7168 166.976 55.9238 166.933 56.1387V57.5508C166.996 57.8242 167.097 58.0879 167.238 58.3418C167.382 58.5918 167.574 58.7969 167.812 58.957C168.054 59.1172 168.353 59.1973 168.709 59.1973C169.002 59.1973 169.252 59.1387 169.459 59.0215C169.67 58.9004 169.839 58.7344 169.968 58.5234C170.101 58.3125 170.199 58.0684 170.261 57.791C170.324 57.5137 170.355 57.2168 170.355 56.9004Z" fill="black"/>
<path d="M175.573 59.0215L177.308 53.6602H178.415L176.136 60H175.409L175.573 59.0215ZM174.126 53.6602L175.913 59.0508L176.036 60H175.31L173.013 53.6602H174.126Z" fill="black"/>
<path d="M182.907 60.1172C182.466 60.1172 182.065 60.043 181.706 59.8945C181.35 59.7422 181.044 59.5293 180.786 59.2559C180.532 58.9824 180.337 58.6582 180.2 58.2832C180.063 57.9082 179.995 57.498 179.995 57.0527V56.8066C179.995 56.291 180.071 55.832 180.223 55.4297C180.376 55.0234 180.583 54.6797 180.845 54.3984C181.106 54.1172 181.403 53.9043 181.735 53.7598C182.067 53.6152 182.411 53.543 182.766 53.543C183.22 53.543 183.61 53.6211 183.938 53.7773C184.27 53.9336 184.542 54.1523 184.753 54.4336C184.964 54.7109 185.12 55.0391 185.221 55.418C185.323 55.793 185.374 56.2031 185.374 56.6484V57.1348H180.639V56.25H184.29V56.168C184.274 55.8867 184.216 55.6133 184.114 55.3477C184.016 55.082 183.86 54.8633 183.645 54.6914C183.43 54.5195 183.137 54.4336 182.766 54.4336C182.52 54.4336 182.294 54.4863 182.087 54.5918C181.88 54.6934 181.702 54.8457 181.554 55.0488C181.405 55.252 181.29 55.5 181.208 55.793C181.126 56.0859 181.085 56.4238 181.085 56.8066V57.0527C181.085 57.3535 181.126 57.6367 181.208 57.9023C181.294 58.1641 181.417 58.3945 181.577 58.5938C181.741 58.793 181.938 58.9492 182.169 59.0625C182.403 59.1758 182.669 59.2324 182.966 59.2324C183.348 59.2324 183.673 59.1543 183.938 58.998C184.204 58.8418 184.436 58.6328 184.636 58.3711L185.292 58.8926C185.155 59.0996 184.981 59.2969 184.77 59.4844C184.559 59.6719 184.3 59.8242 183.991 59.9414C183.686 60.0586 183.325 60.1172 182.907 60.1172Z" fill="black"/>
<path d="M188.623 55.0137V60H187.539V53.6602H188.565L188.623 55.0137ZM188.366 56.5898L187.914 56.5723C187.918 56.1387 187.983 55.7383 188.108 55.3711C188.233 55 188.409 54.6777 188.635 54.4043C188.862 54.1309 189.131 53.9199 189.444 53.7715C189.76 53.6191 190.11 53.543 190.493 53.543C190.805 53.543 191.086 53.5859 191.336 53.6719C191.586 53.7539 191.799 53.8867 191.975 54.0703C192.155 54.2539 192.291 54.4922 192.385 54.7852C192.479 55.0742 192.526 55.4277 192.526 55.8457V60H191.436V55.834C191.436 55.502 191.387 55.2363 191.289 55.0371C191.192 54.834 191.049 54.6875 190.862 54.5977C190.674 54.5039 190.444 54.457 190.17 54.457C189.901 54.457 189.655 54.5137 189.432 54.627C189.213 54.7402 189.024 54.8965 188.864 55.0957C188.707 55.2949 188.584 55.5234 188.495 55.7812C188.409 56.0352 188.366 56.3047 188.366 56.5898Z" fill="black"/>
<path d="M197.727 53.6602V54.4922H194.299V53.6602H197.727ZM195.459 52.1191H196.543V58.4297C196.543 58.6445 196.576 58.8066 196.643 58.916C196.709 59.0254 196.795 59.0977 196.9 59.1328C197.006 59.168 197.119 59.1855 197.24 59.1855C197.33 59.1855 197.424 59.1777 197.521 59.1621C197.623 59.1426 197.699 59.127 197.75 59.1152L197.756 60C197.67 60.0273 197.557 60.0527 197.416 60.0762C197.279 60.1035 197.113 60.1172 196.918 60.1172C196.652 60.1172 196.408 60.0645 196.186 59.959C195.963 59.8535 195.785 59.6777 195.652 59.4316C195.523 59.1816 195.459 58.8457 195.459 58.4238V52.1191Z" fill="black"/>
<path d="M201.076 53.6602V60H199.986V53.6602H201.076ZM199.904 51.9785C199.904 51.8027 199.957 51.6543 200.062 51.5332C200.171 51.4121 200.332 51.3516 200.543 51.3516C200.75 51.3516 200.908 51.4121 201.017 51.5332C201.13 51.6543 201.187 51.8027 201.187 51.9785C201.187 52.1465 201.13 52.291 201.017 52.4121C200.908 52.5293 200.75 52.5879 200.543 52.5879C200.332 52.5879 200.171 52.5293 200.062 52.4121C199.957 52.291 199.904 52.1465 199.904 51.9785Z" fill="black"/>
<path d="M203.429 56.9004V56.7656C203.429 56.3086 203.495 55.8848 203.628 55.4941C203.761 55.0996 203.952 54.7578 204.202 54.4688C204.452 54.1758 204.755 53.9492 205.111 53.7891C205.466 53.625 205.864 53.543 206.306 53.543C206.751 53.543 207.152 53.625 207.507 53.7891C207.866 53.9492 208.171 54.1758 208.421 54.4688C208.675 54.7578 208.868 55.0996 209.001 55.4941C209.134 55.8848 209.2 56.3086 209.2 56.7656V56.9004C209.2 57.3574 209.134 57.7812 209.001 58.1719C208.868 58.5625 208.675 58.9043 208.421 59.1973C208.171 59.4863 207.868 59.7129 207.513 59.877C207.161 60.0371 206.763 60.1172 206.318 60.1172C205.872 60.1172 205.472 60.0371 205.116 59.877C204.761 59.7129 204.456 59.4863 204.202 59.1973C203.952 58.9043 203.761 58.5625 203.628 58.1719C203.495 57.7812 203.429 57.3574 203.429 56.9004ZM204.513 56.7656V56.9004C204.513 57.2168 204.55 57.5156 204.624 57.7969C204.698 58.0742 204.81 58.3203 204.958 58.5352C205.111 58.75 205.3 58.9199 205.527 59.0449C205.753 59.166 206.017 59.2266 206.318 59.2266C206.614 59.2266 206.874 59.166 207.097 59.0449C207.323 58.9199 207.511 58.75 207.659 58.5352C207.808 58.3203 207.919 58.0742 207.993 57.7969C208.071 57.5156 208.111 57.2168 208.111 56.9004V56.7656C208.111 56.4531 208.071 56.1582 207.993 55.8809C207.919 55.5996 207.806 55.3516 207.654 55.1367C207.505 54.918 207.318 54.7461 207.091 54.6211C206.868 54.4961 206.607 54.4336 206.306 54.4336C206.009 54.4336 205.747 54.4961 205.521 54.6211C205.298 54.7461 205.111 54.918 204.958 55.1367C204.81 55.3516 204.698 55.5996 204.624 55.8809C204.55 56.1582 204.513 56.4531 204.513 56.7656Z" fill="black"/>
<path d="M212.544 55.0137V60H211.46V53.6602H212.485L212.544 55.0137ZM212.286 56.5898L211.835 56.5723C211.839 56.1387 211.903 55.7383 212.028 55.3711C212.153 55 212.329 54.6777 212.555 54.4043C212.782 54.1309 213.052 53.9199 213.364 53.7715C213.68 53.6191 214.03 53.543 214.413 53.543C214.725 53.543 215.007 53.5859 215.257 53.6719C215.507 53.7539 215.72 53.8867 215.895 54.0703C216.075 54.2539 216.212 54.4922 216.305 54.7852C216.399 55.0742 216.446 55.4277 216.446 55.8457V60H215.356V55.834C215.356 55.502 215.307 55.2363 215.21 55.0371C215.112 54.834 214.97 54.6875 214.782 54.5977C214.595 54.5039 214.364 54.457 214.091 54.457C213.821 54.457 213.575 54.5137 213.352 54.627C213.134 54.7402 212.944 54.8965 212.784 55.0957C212.628 55.2949 212.505 55.5234 212.415 55.7812C212.329 56.0352 212.286 56.3047 212.286 56.5898Z" fill="black"/>
<path d="M227.58 57.8438C227.58 57.6445 227.549 57.4688 227.486 57.3164C227.428 57.1602 227.322 57.0195 227.17 56.8945C227.021 56.7695 226.814 56.6504 226.549 56.5371C226.287 56.4238 225.955 56.3086 225.553 56.1914C225.131 56.0664 224.75 55.9277 224.41 55.7754C224.07 55.6191 223.779 55.4414 223.537 55.2422C223.295 55.043 223.109 54.8145 222.98 54.5566C222.852 54.2988 222.787 54.0039 222.787 53.6719C222.787 53.3398 222.855 53.0332 222.992 52.752C223.129 52.4707 223.324 52.2266 223.578 52.0195C223.836 51.8086 224.143 51.6445 224.498 51.5273C224.854 51.4102 225.25 51.3516 225.688 51.3516C226.328 51.3516 226.871 51.4746 227.316 51.7207C227.766 51.9629 228.107 52.2812 228.342 52.6758C228.576 53.0664 228.693 53.4844 228.693 53.9297H227.568C227.568 53.6094 227.5 53.3262 227.363 53.0801C227.227 52.8301 227.02 52.6348 226.742 52.4941C226.465 52.3496 226.113 52.2773 225.688 52.2773C225.285 52.2773 224.953 52.3379 224.691 52.459C224.43 52.5801 224.234 52.7441 224.105 52.9512C223.98 53.1582 223.918 53.3945 223.918 53.6602C223.918 53.8398 223.955 54.0039 224.029 54.1523C224.107 54.2969 224.227 54.4316 224.387 54.5566C224.551 54.6816 224.758 54.7969 225.008 54.9023C225.262 55.0078 225.564 55.1094 225.916 55.207C226.4 55.3438 226.818 55.4961 227.17 55.6641C227.521 55.832 227.811 56.0215 228.037 56.2324C228.268 56.4395 228.438 56.6758 228.547 56.9414C228.66 57.2031 228.717 57.5 228.717 57.832C228.717 58.1797 228.646 58.4941 228.506 58.7754C228.365 59.0566 228.164 59.2969 227.902 59.4961C227.641 59.6953 227.326 59.8496 226.959 59.959C226.596 60.0645 226.189 60.1172 225.74 60.1172C225.346 60.1172 224.957 60.0625 224.574 59.9531C224.195 59.8438 223.85 59.6797 223.537 59.4609C223.229 59.2422 222.98 58.9727 222.793 58.6523C222.609 58.3281 222.518 57.9531 222.518 57.5273H223.643C223.643 57.8203 223.699 58.0723 223.812 58.2832C223.926 58.4902 224.08 58.6621 224.275 58.7988C224.475 58.9355 224.699 59.0371 224.949 59.1035C225.203 59.166 225.467 59.1973 225.74 59.1973C226.135 59.1973 226.469 59.1426 226.742 59.0332C227.016 58.9238 227.223 58.7676 227.363 58.5645C227.508 58.3613 227.58 58.1211 227.58 57.8438Z" fill="black"/>
<path d="M233.431 59.2266C233.689 59.2266 233.927 59.1738 234.146 59.0684C234.365 58.9629 234.545 58.8184 234.685 58.6348C234.826 58.4473 234.906 58.2344 234.925 57.9961H235.957C235.937 58.3711 235.81 58.7207 235.576 59.0449C235.345 59.3652 235.043 59.625 234.668 59.8242C234.293 60.0195 233.88 60.1172 233.431 60.1172C232.955 60.1172 232.539 60.0332 232.183 59.8652C231.832 59.6973 231.539 59.4668 231.304 59.1738C231.074 58.8809 230.9 58.5449 230.783 58.166C230.67 57.7832 230.613 57.3789 230.613 56.9531V56.707C230.613 56.2812 230.67 55.8789 230.783 55.5C230.9 55.1172 231.074 54.7793 231.304 54.4863C231.539 54.1934 231.832 53.9629 232.183 53.7949C232.539 53.627 232.955 53.543 233.431 53.543C233.927 53.543 234.361 53.6445 234.732 53.8477C235.103 54.0469 235.394 54.3203 235.605 54.668C235.82 55.0117 235.937 55.4023 235.957 55.8398H234.925C234.906 55.5781 234.832 55.3418 234.703 55.1309C234.578 54.9199 234.406 54.752 234.187 54.627C233.972 54.498 233.72 54.4336 233.431 54.4336C233.099 54.4336 232.82 54.5 232.593 54.6328C232.371 54.7617 232.193 54.9375 232.06 55.1602C231.931 55.3789 231.837 55.623 231.779 55.8926C231.724 56.1582 231.697 56.4297 231.697 56.707V56.9531C231.697 57.2305 231.724 57.5039 231.779 57.7734C231.834 58.043 231.925 58.2871 232.054 58.5059C232.187 58.7246 232.365 58.9004 232.587 59.0332C232.814 59.1621 233.095 59.2266 233.431 59.2266Z" fill="black"/>
<path d="M239.159 51V60H238.075V51H239.159ZM238.902 56.5898L238.45 56.5723C238.454 56.1387 238.519 55.7383 238.644 55.3711C238.769 55 238.945 54.6777 239.171 54.4043C239.398 54.1309 239.667 53.9199 239.98 53.7715C240.296 53.6191 240.646 53.543 241.029 53.543C241.341 53.543 241.622 53.5859 241.872 53.6719C242.122 53.7539 242.335 53.8867 242.511 54.0703C242.691 54.2539 242.827 54.4922 242.921 54.7852C243.015 55.0742 243.062 55.4277 243.062 55.8457V60H241.972V55.834C241.972 55.502 241.923 55.2363 241.825 55.0371C241.728 54.834 241.585 54.6875 241.398 54.5977C241.21 54.5039 240.98 54.457 240.706 54.457C240.437 54.457 240.191 54.5137 239.968 54.627C239.749 54.7402 239.56 54.8965 239.4 55.0957C239.243 55.2949 239.12 55.5234 239.03 55.7812C238.945 56.0352 238.902 56.3047 238.902 56.5898Z" fill="black"/>
<path d="M248.216 60.1172C247.774 60.1172 247.374 60.043 247.014 59.8945C246.659 59.7422 246.352 59.5293 246.095 59.2559C245.841 58.9824 245.645 58.6582 245.509 58.2832C245.372 57.9082 245.304 57.498 245.304 57.0527V56.8066C245.304 56.291 245.38 55.832 245.532 55.4297C245.684 55.0234 245.891 54.6797 246.153 54.3984C246.415 54.1172 246.712 53.9043 247.044 53.7598C247.376 53.6152 247.72 53.543 248.075 53.543C248.528 53.543 248.919 53.6211 249.247 53.7773C249.579 53.9336 249.85 54.1523 250.061 54.4336C250.272 54.7109 250.429 55.0391 250.53 55.418C250.632 55.793 250.682 56.2031 250.682 56.6484V57.1348H245.948V56.25H249.598V56.168C249.583 55.8867 249.524 55.6133 249.423 55.3477C249.325 55.082 249.169 54.8633 248.954 54.6914C248.739 54.5195 248.446 54.4336 248.075 54.4336C247.829 54.4336 247.602 54.4863 247.395 54.5918C247.188 54.6934 247.011 54.8457 246.862 55.0488C246.714 55.252 246.598 55.5 246.516 55.793C246.434 56.0859 246.393 56.4238 246.393 56.8066V57.0527C246.393 57.3535 246.434 57.6367 246.516 57.9023C246.602 58.1641 246.725 58.3945 246.886 58.5938C247.05 58.793 247.247 58.9492 247.477 59.0625C247.712 59.1758 247.977 59.2324 248.274 59.2324C248.657 59.2324 248.981 59.1543 249.247 58.998C249.512 58.8418 249.745 58.6328 249.944 58.3711L250.6 58.8926C250.464 59.0996 250.29 59.2969 250.079 59.4844C249.868 59.6719 249.608 59.8242 249.3 59.9414C248.995 60.0586 248.634 60.1172 248.216 60.1172Z" fill="black"/>
<path d="M253.926 54.9199V60H252.836V53.6602H253.868L253.926 54.9199ZM253.704 56.5898L253.2 56.5723C253.204 56.1387 253.26 55.7383 253.37 55.3711C253.479 55 253.641 54.6777 253.856 54.4043C254.071 54.1309 254.338 53.9199 254.659 53.7715C254.979 53.6191 255.35 53.543 255.772 53.543C256.069 53.543 256.342 53.5859 256.592 53.6719C256.842 53.7539 257.059 53.8848 257.243 54.0645C257.426 54.2441 257.569 54.4746 257.67 54.7559C257.772 55.0371 257.823 55.377 257.823 55.7754V60H256.739V55.8281C256.739 55.4961 256.682 55.2305 256.569 55.0312C256.459 54.832 256.303 54.6875 256.1 54.5977C255.897 54.5039 255.659 54.457 255.385 54.457C255.065 54.457 254.797 54.5137 254.582 54.627C254.368 54.7402 254.196 54.8965 254.067 55.0957C253.938 55.2949 253.844 55.5234 253.786 55.7812C253.731 56.0352 253.704 56.3047 253.704 56.5898ZM257.811 55.9922L257.084 56.2148C257.088 55.8672 257.145 55.5332 257.254 55.2129C257.368 54.8926 257.53 54.6074 257.741 54.3574C257.955 54.1074 258.219 53.9102 258.532 53.7656C258.844 53.6172 259.202 53.543 259.604 53.543C259.944 53.543 260.245 53.5879 260.506 53.6777C260.772 53.7676 260.995 53.9062 261.174 54.0938C261.358 54.2773 261.496 54.5137 261.59 54.8027C261.684 55.0918 261.731 55.4355 261.731 55.834V60H260.641V55.8223C260.641 55.4668 260.584 55.1914 260.471 54.9961C260.362 54.7969 260.205 54.6582 260.002 54.5801C259.803 54.498 259.565 54.457 259.288 54.457C259.049 54.457 258.838 54.498 258.655 54.5801C258.471 54.6621 258.317 54.7754 258.192 54.9199C258.067 55.0605 257.971 55.2227 257.905 55.4062C257.842 55.5898 257.811 55.7852 257.811 55.9922Z" fill="black"/>
<path d="M266.902 60.1172C266.461 60.1172 266.061 60.043 265.701 59.8945C265.346 59.7422 265.039 59.5293 264.781 59.2559C264.527 58.9824 264.332 58.6582 264.195 58.2832C264.059 57.9082 263.99 57.498 263.99 57.0527V56.8066C263.99 56.291 264.066 55.832 264.219 55.4297C264.371 55.0234 264.578 54.6797 264.84 54.3984C265.102 54.1172 265.398 53.9043 265.73 53.7598C266.062 53.6152 266.406 53.543 266.762 53.543C267.215 53.543 267.605 53.6211 267.934 53.7773C268.266 53.9336 268.537 54.1523 268.748 54.4336C268.959 54.7109 269.115 55.0391 269.217 55.418C269.318 55.793 269.369 56.2031 269.369 56.6484V57.1348H264.635V56.25H268.285V56.168C268.27 55.8867 268.211 55.6133 268.109 55.3477C268.012 55.082 267.855 54.8633 267.641 54.6914C267.426 54.5195 267.133 54.4336 266.762 54.4336C266.516 54.4336 266.289 54.4863 266.082 54.5918C265.875 54.6934 265.697 54.8457 265.549 55.0488C265.4 55.252 265.285 55.5 265.203 55.793C265.121 56.0859 265.08 56.4238 265.08 56.8066V57.0527C265.08 57.3535 265.121 57.6367 265.203 57.9023C265.289 58.1641 265.412 58.3945 265.572 58.5938C265.736 58.793 265.934 58.9492 266.164 59.0625C266.398 59.1758 266.664 59.2324 266.961 59.2324C267.344 59.2324 267.668 59.1543 267.934 58.998C268.199 58.8418 268.432 58.6328 268.631 58.3711L269.287 58.8926C269.15 59.0996 268.977 59.2969 268.766 59.4844C268.555 59.6719 268.295 59.8242 267.986 59.9414C267.682 60.0586 267.32 60.1172 266.902 60.1172Z" fill="black"/>
<path d="M64.3566 0C70.8315 7.27644 74.7426 16.8438 74.7426 27.3151C74.7426 41.2028 67.8641 53.4761 57.3246 60.9288C59.6667 58.2854 61.1334 54.8916 61.1504 51.2193C61.0879 51.2193 61.1504 44.7899 56.0626 42.0328C56.8755 47.3139 56.3923 49.5423 54.0673 52.7655C53.027 53.8058 49.1045 58.8368 48.0244 61.9407C46.9443 65.0388 47.0239 65.1525 46.7852 66.3065V78.0057C59.6212 77.784 71.0134 71.6843 78.4035 62.2931C83.9064 55.2952 87.1978 46.4555 87.1978 36.8597C87.1978 20.7037 77.9033 6.73639 64.3623 0L64.3566 0Z" fill="#F47D20"/>
<path d="M38.6674 62.3444C37.5873 59.2406 33.6649 54.2096 32.6246 53.1693C30.2995 49.946 29.8163 47.7233 30.6293 42.4365C25.5414 45.1993 25.604 51.623 25.5414 51.623C25.5585 55.8923 27.5481 59.792 30.5895 62.5661C18.6459 55.3636 10.6588 42.2717 10.6588 27.3095C10.6588 17.6966 13.9503 8.8626 19.4986 1.84766C7.79943 9.10136 0 22.0739 0 36.8598C0 47.3311 3.91677 56.8871 10.3462 64.1578C17.634 72.3723 28.145 77.642 39.9124 77.9888V66.716C39.668 65.5563 39.7532 65.4483 38.6674 62.3444Z" fill="#F47D20"/>
<path d="M68.5235 22.0965V20.1808V15.1043V12.711C68.5235 11.449 67.5002 10.4258 66.2382 10.4258L19.9703 10.4713C18.7083 10.4713 17.6851 11.4945 17.6851 12.7565V17.8841L17.6907 22.142L17.7078 38.6731C17.7078 39.9351 18.731 40.9584 19.9931 40.9584L66.261 40.9129C67.523 40.9129 68.5462 39.884 68.5462 38.6277L68.5292 22.0908L68.5235 22.0965Z" fill="#006838"/>
<path d="M61.1618 20.9604H68.5179V17.1915H60.9231C60.8947 16.7765 60.7298 15.4065 59.7236 14.0762H65.3799V10.4551H46.1201V14.5879C48.5361 14.7129 54.6983 14.207 55.6534 17.1915H17.6794V20.9604H56.0627C55.8239 21.4493 54.4425 24.0245 51.3955 24.3144L46.1201 24.4395L46.0575 28.1232L57.1143 40.9593H62.8331L52.4074 28.1857C52.4074 28.1857 58.8595 28.3733 61.1618 20.9604Z" fill="#FFF200"/>
</svg>
